<svg width="300" height="60" viewBox="0 0 300 60" fill="none" xmlns="http://www.w3.org/2000/svg">
<mask id="path-1-inside-1_176_2" fill="white">
<path d="M12.7515 0.173088C12.5478 0.293688 12.0132 0.414283 11.555 0.414283C11.1222 0.414283 10.6639 0.510764 10.5876 0.655484C10.5112 0.776083 10.2057 0.896684 9.92563 0.896684C8.83092 0.896684 6.43784 2.368 4.70667 4.12876C1.88079 6.99904 2.059 6.66136 0.378751 11.7748C-0.130416 13.3667 -0.130416 22.2187 0.40421 23.0871C0.607876 23.4247 0.760626 24.0277 0.786085 24.4137C0.786085 24.8237 0.887918 25.2579 1.01521 25.3785C1.1425 25.5232 1.32071 26.2709 1.39709 27.0669C1.47346 27.8628 1.65167 29.2135 1.77896 30.0819C1.93171 30.9502 2.16084 32.3974 2.28813 33.338C2.41542 34.2546 2.64454 35.34 2.77184 35.75C3.35738 37.3661 3.5865 38.2103 3.5865 38.6686C3.5865 38.9339 3.79017 39.5851 4.07021 40.1158C4.3248 40.6223 4.73213 41.6594 4.98671 42.383C5.5468 43.9991 6.33601 45.6392 7.02338 46.604C7.30342 46.99 7.65984 47.4965 7.78713 47.7136C10.0529 51.1627 14.8136 55.1666 18.9888 57.1445C19.7016 57.4821 20.8982 57.9404 21.6619 58.1334C24.8188 59.0017 31.3616 59.3153 32.5836 58.6881C32.9145 58.5193 33.3982 58.4228 33.6274 58.4711C33.8819 58.5434 34.4166 58.4228 34.8494 58.2057C35.2822 57.9887 35.9186 57.8198 36.275 57.8198C36.6314 57.8198 37.3188 57.6027 37.828 57.3374C38.3372 57.0721 38.8972 56.855 39.1009 56.855C39.661 56.855 44.9309 54.3224 45.3127 53.8641C45.5164 53.6471 45.7965 53.4782 45.9747 53.4782C46.1274 53.4782 46.4838 53.237 46.7639 52.9717C47.2221 52.4652 48.3932 51.6692 49.9971 50.7527C50.4044 50.5115 51.2955 49.7879 51.9828 49.1366C52.6702 48.4613 53.3576 47.9306 53.5103 47.9306C53.6631 47.9306 54.1468 47.6653 54.605 47.3276C55.0378 47.0141 55.878 46.387 56.489 45.9528C57.0745 45.5186 58.1947 44.6744 58.9584 44.0714C59.6967 43.4684 60.8678 42.6001 61.5297 42.1418C62.1916 41.6836 63.159 40.9358 63.6682 40.5017C64.2028 40.0916 64.8902 39.7298 65.2466 39.7298C66.0613 39.7298 67.5633 40.4776 70.3892 42.2624C71.6367 43.0584 73.2406 44.0232 73.9534 44.385C74.6662 44.7709 75.43 45.2051 75.6336 45.3739C75.8373 45.5186 76.3719 45.8081 76.7793 46.001C77.2121 46.194 77.7467 46.5076 78.0013 46.7005C79.4778 47.8583 86.428 51.211 87.8282 51.428C88.4392 51.5245 89.3557 51.7657 89.8394 51.9587C90.4504 52.1999 91.7742 52.3205 93.9382 52.3446C96.9423 52.3928 97.2223 52.3446 98.5462 51.7416C100.939 50.6321 102.518 48.7025 103.587 45.4945C103.943 44.4815 103.787 40.385 103.587 38.8674C103.587 37.3575 102.874 35.147 102.874 33.8687C102.874 33.0968 102.772 32.3009 102.645 32.0597C102.212 31.2396 101.805 29.4547 101.576 27.4287C101.27 24.486 100.812 23.1835 100.812 23.1835C100.812 23.1835 100.583 22.7253 100.583 22.3393C100.583 21.6157 98.317 17.0329 97.2223 15.5375C95.2875 12.9326 91.7488 10.4964 88.4901 9.57988C87.4209 9.29044 83.7294 9.36279 81.2345 9.74871C79.8088 9.96579 77.1102 11.1718 75.8118 12.1607C75.4045 12.4743 74.9208 12.7155 74.7171 12.7155C74.5135 12.7155 74.3607 12.812 74.3607 12.9084C74.3607 13.0049 73.9788 13.2943 73.5461 13.5355C73.0878 13.8009 72.044 14.5486 71.2548 15.224C69.1927 16.9847 68.0725 17.8048 66.4432 18.8178C65.654 19.3002 64.6102 20.0721 64.101 20.5545C63.21 21.3987 61.8607 21.7122 61.5297 21.1816C61.326 20.868 56.8199 18.0219 55.9034 17.6118C55.4961 17.4189 54.7832 17.0329 54.325 16.7435C53.8922 16.4541 52.9248 15.8752 52.212 15.4893C51.4737 15.0792 50.5826 14.5245 50.2262 14.2591C49.8443 13.9697 49.1315 13.5356 48.6223 13.2944C48.1132 13.029 46.8657 12.3296 45.8728 11.6783C44.88 11.0512 43.8616 10.4723 43.6325 10.3758C43.3779 10.3035 42.9706 10.0623 42.716 9.8452C42.2068 9.43516 40.7048 8.59096 38.4135 7.4332C37.6243 7.02316 36.9115 6.589 36.8351 6.4684C36.6314 6.17896 30.1141 3.06748 29.7068 3.06748C29.5286 3.06748 28.6121 2.70568 27.6701 2.2474C26.7027 1.78913 25.7862 1.47556 25.608 1.5238C25.4298 1.59616 24.9206 1.47556 24.4878 1.2826C24.0805 1.06552 23.3931 0.896684 22.9603 0.896684C22.553 0.896684 22.1456 0.800202 22.0693 0.679603C21.8401 0.341923 20.0581 0.124844 16.443 0.0283636C14.4827 -0.0439963 12.9806 0.0283681 12.7515 0.173088ZM19.5489 3.42928C24.666 4.22524 31.998 7.21612 38.4644 11.1477C40.1956 12.209 46.5347 15.9475 50.6845 18.3837C56.5653 21.8087 59.3403 23.5212 59.3403 23.7142C59.3403 24.076 58.4747 24.7755 58.0419 24.7755C57.7873 24.7755 55.5979 23.5936 53.1794 22.1464C37.6498 12.9325 34.7221 11.3165 29.5795 9.33868C23.1385 6.85432 16.5448 6.17896 11.9878 7.5538C9.26372 8.34976 7.02338 9.70047 5.2413 11.5818C4.47755 12.4019 3.79017 12.9808 3.68834 12.8843C3.43375 12.6431 4.42663 9.96579 5.29221 8.47036C6.74334 6.01012 9.59467 4.10464 12.8533 3.42928C14.9409 2.99512 16.7485 2.99512 19.5489 3.42928ZM23.2404 10.7618C29.4776 12.3537 34.0092 14.4762 44.0653 20.5545C44.549 20.8439 47.0185 22.3152 49.5388 23.8107C55.1142 27.091 54.9869 27.0186 54.3759 27.6699C54.1213 27.9352 53.714 28.1523 53.4594 28.1523C53.2048 28.1523 51.1936 27.091 48.9787 25.7644C40.1702 20.5786 38.4644 19.6138 35.0276 18.0219C31.2597 16.2611 26.4481 14.6209 23.6986 14.1385C22.7821 13.9697 20.7709 13.8009 19.2434 13.7526C14.1517 13.5597 10.4603 14.838 7.17613 17.9254C5.57226 19.4449 4.85942 19.9756 4.85942 19.6379C4.85942 19.2761 6.00505 16.3817 6.43784 15.6581C8.11809 12.812 11.1222 10.7859 14.5336 10.207C16.0866 9.94168 21.331 10.2794 23.2404 10.7618ZM87.2426 12.8361C88.1082 13.029 89.483 13.5597 90.3231 14.0179C92.0797 15.0069 94.7274 17.5636 94.7274 18.3113C94.7274 18.7937 94.7019 18.7937 94.04 18.3595C91.5706 16.8159 89.4321 16.237 86.1989 16.237C81.7691 16.237 78.5868 17.6118 72.3241 22.2429C70.4401 23.6418 68.6835 24.7755 68.4289 24.7755C67.767 24.7755 65.9595 23.6177 66.1122 23.28C66.1631 23.1112 67.7415 21.8811 69.5491 20.5545C71.3821 19.2279 73.0114 18.0219 73.1896 17.8771C74.1825 17.0088 77.3393 14.9104 78.485 14.3556C80.2416 13.4873 81.0563 13.1979 82.762 12.8361C84.6459 12.426 85.4096 12.426 87.2426 12.8361ZM23.1131 17.1777C23.5968 17.3706 24.3351 17.5395 24.7424 17.5395C25.1243 17.5395 25.5061 17.6359 25.5825 17.7565C25.6589 17.8771 26.0408 18.0219 26.4226 18.0942C28.2047 18.4078 38.7954 23.28 40.883 24.7513C41.4431 25.1373 42.4105 25.7161 43.047 26.0297C43.6834 26.3191 44.9818 27.0669 45.9492 27.6699C46.8912 28.2729 47.935 28.8759 48.2405 29.0447C48.546 29.2135 49.0551 29.5995 49.3861 29.9371C49.9716 30.516 49.9716 30.5643 49.5643 31.1914C49.3097 31.5291 48.7496 31.9873 48.3168 32.2044C47.9095 32.4456 47.1203 32.9762 46.6111 33.3863C46.0765 33.8204 45.5419 34.1822 45.4146 34.1822C45.2873 34.1822 44.7272 34.6164 44.1926 35.147C43.6325 35.6777 42.6651 36.353 42.0286 36.6425C41.3922 36.9078 40.6539 37.342 40.3738 37.5832C39.941 37.945 36.8606 39.3922 33.1691 40.96C32.5836 41.2012 31.5652 41.4182 30.9288 41.4182C30.2923 41.4182 29.5795 41.5147 29.3504 41.6353C29.1212 41.7559 27.5428 41.9006 25.8626 41.973C23.5204 42.0695 22.6548 42.0212 22.1711 41.78C21.8147 41.5871 21.2291 41.4424 20.8473 41.4182C20.1853 41.4182 18.5815 40.8394 17.0794 40.0675C16.723 39.8987 15.8829 39.4645 15.1701 39.1268C13.7953 38.4274 9.18734 34.2787 9.18734 33.7481C9.18734 33.5551 8.85638 33.121 8.44905 32.7592C4.35025 29.1171 6.69242 20.6509 12.4969 18.1907C15.501 16.9123 15.832 16.84 19.0652 16.84C21.2801 16.8159 22.4511 16.9123 23.1131 17.1777ZM88.9993 19.8309C91.3414 20.4097 93.5818 21.8569 95.262 23.883C96.5859 25.4508 96.5859 25.9332 95.262 25.1614C92.7417 23.6418 90.705 23.0871 87.7264 23.0871C83.9076 23.0871 80.4707 24.2931 76.6774 26.9463C75.5318 27.7422 74.4626 28.3935 74.2843 28.3935C73.8006 28.3935 72.0695 27.2116 72.0695 26.8739C72.0695 26.3674 77.6194 22.3393 80.0634 21.061C82.9911 19.5414 86.0461 19.1073 88.9993 19.8309ZM64.1519 26.3915C65.2466 27.0669 65.3994 27.3804 64.8902 27.8628C64.432 28.297 63.5409 28.2246 62.548 27.6457C61.5552 27.091 61.3515 26.3915 62.0898 26.0056C62.7517 25.6197 63.0063 25.692 64.1519 26.3915ZM92.3598 27.3804C94.9311 28.6347 97.1714 30.7572 97.426 32.2285C97.5278 32.7833 98.037 33.9169 98.5716 34.7611C99.4627 36.1601 99.5899 36.5701 100.074 39.9228C100.557 43.2514 100.583 43.6614 100.226 44.7709C99.5899 46.8211 98.1388 48.5819 96.4077 49.4261C95.4911 49.8602 95.262 49.8844 93.3527 49.619C89.1011 49.0402 86.1989 47.7618 78.3831 43.1066C75.6082 41.4424 72.2986 39.4886 71.0257 38.765C69.2436 37.7279 68.7599 37.342 68.8108 36.956C68.8617 36.6907 69.1927 36.3772 69.5491 36.2566C70.1346 36.0636 70.7966 36.3772 75.1499 38.958C80.6999 42.2142 83.7294 43.7338 86.708 44.7227C88.5156 45.3016 89.1266 45.3739 91.927 45.398C94.7019 45.398 95.2366 45.3257 96.1276 44.8915C96.7895 44.5538 97.1205 44.2403 97.0696 43.975C97.0187 43.7579 97.1714 43.5167 97.3751 43.4443C97.5787 43.372 97.706 43.179 97.6297 42.986C97.5533 42.8172 97.6806 42.5278 97.8842 42.3107C98.3425 41.8765 98.4189 41.2735 98.037 41.0564C97.9097 40.9841 97.3751 41.177 96.8404 41.5147C95.2875 42.4313 94.0909 42.6966 91.9524 42.5519C88.1337 42.2866 85.2314 41.0564 77.0593 36.2324C76.6011 35.9671 75.5827 35.3641 74.7935 34.9058C73.1896 33.9652 72.9605 33.2657 74.1571 32.8798C74.7171 32.6868 75.1245 32.8315 77.0848 33.9893C83.6276 37.8244 89.5594 39.4645 93.7345 38.5238C96.2804 37.945 98.2661 36.2566 97.9097 34.9782C97.7824 34.5923 97.6806 34.1581 97.6297 33.9893C97.5024 33.3863 97.2987 33.3863 96.4586 33.9893C94.6765 35.2435 94.0909 35.3882 90.6286 35.3882C88.7447 35.3882 87.319 35.2918 87.2172 35.147C87.1408 35.0023 86.8608 34.9058 86.6316 34.9058C86.1734 34.9058 79.8343 31.9632 79.1978 31.4326C78.9941 31.2637 78.6123 31.0467 78.3831 30.9743C77.6958 30.7572 77.8231 29.8648 78.5359 29.5995C78.8669 29.4789 79.2233 29.2618 79.3251 29.1171C79.5542 28.7794 83.1948 27.0669 84.1876 26.8498C86.3261 26.3674 86.8608 26.295 88.541 26.3674C90.0431 26.4156 90.6795 26.5845 92.3598 27.3804ZM59.5949 29.7201C60.766 30.4195 60.8678 30.8778 59.9768 31.4326C59.3912 31.7944 59.2894 31.7944 58.2201 31.1914C56.7945 30.3954 56.6417 30.1542 57.2018 29.5753C57.7873 28.9723 58.3729 28.9965 59.5949 29.7201ZM69.931 29.7683C71.2039 30.5401 71.3312 31.0708 70.4147 31.5291C69.8546 31.8185 69.6509 31.7702 68.6326 31.2637C67.3597 30.6125 67.1815 30.0819 68.047 29.503C68.7599 29.0206 68.6326 28.9965 69.931 29.7683ZM55.0124 33.121C55.5725 33.4828 56.0307 33.8204 56.0307 33.9169C56.0307 34.2305 55.547 34.6405 52.8484 36.5942C51.3209 37.7279 49.157 39.3198 48.0622 40.1399C42.4614 44.385 37.828 46.8211 32.8636 48.196C30.776 48.7748 26.1426 49.0402 23.9532 48.7025C20.5163 48.196 16.2648 46.1699 13.3625 43.6614C12.0387 42.5278 10.2057 40.5017 10.2057 40.1881C10.2057 39.8504 10.8676 39.9228 11.224 40.3328C11.7332 40.9117 14.9918 42.8654 16.4939 43.4926C19.1416 44.6262 21.611 45.1086 25.0988 45.2292C29.8086 45.3739 33.3473 44.6503 37.9298 42.576C41.6977 40.8876 44.0144 39.3922 51.5755 33.8204C52.5684 33.0968 53.5103 32.4939 53.6885 32.4939C53.8667 32.4939 54.4523 32.7833 55.0124 33.121ZM65.3485 33.121C66.6214 33.8204 66.7741 34.4234 65.8067 34.9058C65.2212 35.2194 65.043 35.1953 64.0246 34.6888C62.8281 34.0858 62.6499 33.6516 63.3373 32.928C63.8719 32.3732 63.9992 32.3732 65.3485 33.121ZM60.766 36.4978C61.4024 36.8596 61.8861 37.2937 61.8607 37.5108C61.8607 37.752 59.9768 39.2716 57.6091 40.9841C55.267 42.6725 51.5755 45.3739 49.4115 46.9658C44.549 50.5356 41.2649 52.4893 38.1589 53.6953C35.1039 54.9013 34.4675 55.0701 31.7434 55.5284C29.0194 55.9626 27.4919 55.9867 24.9715 55.5525C20.109 54.7083 15.6283 52.224 12.1914 48.3889C10.1802 46.1458 10.613 45.8563 13.2607 47.6653C17.2576 50.415 20.0835 51.4763 24.997 52.0551C28.3066 52.4411 32.0744 51.9828 36.0459 50.7044C37.3952 50.2703 41.7995 48.2924 43.3015 47.4241C45.0327 46.4352 53.0521 40.7188 58.0165 36.9078C58.7548 36.3289 59.4167 35.8706 59.493 35.8706C59.5694 35.8706 60.1295 36.1601 60.766 36.4978Z"/>
</mask>
<path d="M12.7515 0.173088C12.5478 0.293688 12.0132 0.414283 11.555 0.414283C11.1222 0.414283 10.6639 0.510764 10.5876 0.655484C10.5112 0.776083 10.2057 0.896684 9.92563 0.896684C8.83092 0.896684 6.43784 2.368 4.70667 4.12876C1.88079 6.99904 2.059 6.66136 0.378751 11.7748C-0.130416 13.3667 -0.130416 22.2187 0.40421 23.0871C0.607876 23.4247 0.760626 24.0277 0.786085 24.4137C0.786085 24.8237 0.887918 25.2579 1.01521 25.3785C1.1425 25.5232 1.32071 26.2709 1.39709 27.0669C1.47346 27.8628 1.65167 29.2135 1.77896 30.0819C1.93171 30.9502 2.16084 32.3974 2.28813 33.338C2.41542 34.2546 2.64454 35.34 2.77184 35.75C3.35738 37.3661 3.5865 38.2103 3.5865 38.6686C3.5865 38.9339 3.79017 39.5851 4.07021 40.1158C4.3248 40.6223 4.73213 41.6594 4.98671 42.383C5.5468 43.9991 6.33601 45.6392 7.02338 46.604C7.30342 46.99 7.65984 47.4965 7.78713 47.7136C10.0529 51.1627 14.8136 55.1666 18.9888 57.1445C19.7016 57.4821 20.8982 57.9404 21.6619 58.1334C24.8188 59.0017 31.3616 59.3153 32.5836 58.6881C32.9145 58.5193 33.3982 58.4228 33.6274 58.4711C33.8819 58.5434 34.4166 58.4228 34.8494 58.2057C35.2822 57.9887 35.9186 57.8198 36.275 57.8198C36.6314 57.8198 37.3188 57.6027 37.828 57.3374C38.3372 57.0721 38.8972 56.855 39.1009 56.855C39.661 56.855 44.9309 54.3224 45.3127 53.8641C45.5164 53.6471 45.7965 53.4782 45.9747 53.4782C46.1274 53.4782 46.4838 53.237 46.7639 52.9717C47.2221 52.4652 48.3932 51.6692 49.9971 50.7527C50.4044 50.5115 51.2955 49.7879 51.9828 49.1366C52.6702 48.4613 53.3576 47.9306 53.5103 47.9306C53.6631 47.9306 54.1468 47.6653 54.605 47.3276C55.0378 47.0141 55.878 46.387 56.489 45.9528C57.0745 45.5186 58.1947 44.6744 58.9584 44.0714C59.6967 43.4684 60.8678 42.6001 61.5297 42.1418C62.1916 41.6836 63.159 40.9358 63.6682 40.5017C64.2028 40.0916 64.8902 39.7298 65.2466 39.7298C66.0613 39.7298 67.5633 40.4776 70.3892 42.2624C71.6367 43.0584 73.2406 44.0232 73.9534 44.385C74.6662 44.7709 75.43 45.2051 75.6336 45.3739C75.8373 45.5186 76.3719 45.8081 76.7793 46.001C77.2121 46.194 77.7467 46.5076 78.0013 46.7005C79.4778 47.8583 86.428 51.211 87.8282 51.428C88.4392 51.5245 89.3557 51.7657 89.8394 51.9587C90.4504 52.1999 91.7742 52.3205 93.9382 52.3446C96.9423 52.3928 97.2223 52.3446 98.5462 51.7416C100.939 50.6321 102.518 48.7025 103.587 45.4945C103.943 44.4815 103.787 40.385 103.587 38.8674C103.587 37.3575 102.874 35.147 102.874 33.8687C102.874 33.0968 102.772 32.3009 102.645 32.0597C102.212 31.2396 101.805 29.4547 101.576 27.4287C101.27 24.486 100.812 23.1835 100.812 23.1835C100.812 23.1835 100.583 22.7253 100.583 22.3393C100.583 21.6157 98.317 17.0329 97.2223 15.5375C95.2875 12.9326 91.7488 10.4964 88.4901 9.57988C87.4209 9.29044 83.7294 9.36279 81.2345 9.74871C79.8088 9.96579 77.1102 11.1718 75.8118 12.1607C75.4045 12.4743 74.9208 12.7155 74.7171 12.7155C74.5135 12.7155 74.3607 12.812 74.3607 12.9084C74.3607 13.0049 73.9788 13.2943 73.5461 13.5355C73.0878 13.8009 72.044 14.5486 71.2548 15.224C69.1927 16.9847 68.0725 17.8048 66.4432 18.8178C65.654 19.3002 64.6102 20.0721 64.101 20.5545C63.21 21.3987 61.8607 21.7122 61.5297 21.1816C61.326 20.868 56.8199 18.0219 55.9034 17.6118C55.4961 17.4189 54.7832 17.0329 54.325 16.7435C53.8922 16.4541 52.9248 15.8752 52.212 15.4893C51.4737 15.0792 50.5826 14.5245 50.2262 14.2591C49.8443 13.9697 49.1315 13.5356 48.6223 13.2944C48.1132 13.029 46.8657 12.3296 45.8728 11.6783C44.88 11.0512 43.8616 10.4723 43.6325 10.3758C43.3779 10.3035 42.9706 10.0623 42.716 9.8452C42.2068 9.43516 40.7048 8.59096 38.4135 7.4332C37.6243 7.02316 36.9115 6.589 36.8351 6.4684C36.6314 6.17896 30.1141 3.06748 29.7068 3.06748C29.5286 3.06748 28.6121 2.70568 27.6701 2.2474C26.7027 1.78913 25.7862 1.47556 25.608 1.5238C25.4298 1.59616 24.9206 1.47556 24.4878 1.2826C24.0805 1.06552 23.3931 0.896684 22.9603 0.896684C22.553 0.896684 22.1456 0.800202 22.0693 0.679603C21.8401 0.341923 20.0581 0.124844 16.443 0.0283636C14.4827 -0.0439963 12.9806 0.0283681 12.7515 0.173088ZM19.5489 3.42928C24.666 4.22524 31.998 7.21612 38.4644 11.1477C40.1956 12.209 46.5347 15.9475 50.6845 18.3837C56.5653 21.8087 59.3403 23.5212 59.3403 23.7142C59.3403 24.076 58.4747 24.7755 58.0419 24.7755C57.7873 24.7755 55.5979 23.5936 53.1794 22.1464C37.6498 12.9325 34.7221 11.3165 29.5795 9.33868C23.1385 6.85432 16.5448 6.17896 11.9878 7.5538C9.26372 8.34976 7.02338 9.70047 5.2413 11.5818C4.47755 12.4019 3.79017 12.9808 3.68834 12.8843C3.43375 12.6431 4.42663 9.96579 5.29221 8.47036C6.74334 6.01012 9.59467 4.10464 12.8533 3.42928C14.9409 2.99512 16.7485 2.99512 19.5489 3.42928ZM23.2404 10.7618C29.4776 12.3537 34.0092 14.4762 44.0653 20.5545C44.549 20.8439 47.0185 22.3152 49.5388 23.8107C55.1142 27.091 54.9869 27.0186 54.3759 27.6699C54.1213 27.9352 53.714 28.1523 53.4594 28.1523C53.2048 28.1523 51.1936 27.091 48.9787 25.7644C40.1702 20.5786 38.4644 19.6138 35.0276 18.0219C31.2597 16.2611 26.4481 14.6209 23.6986 14.1385C22.7821 13.9697 20.7709 13.8009 19.2434 13.7526C14.1517 13.5597 10.4603 14.838 7.17613 17.9254C5.57226 19.4449 4.85942 19.9756 4.85942 19.6379C4.85942 19.2761 6.00505 16.3817 6.43784 15.6581C8.11809 12.812 11.1222 10.7859 14.5336 10.207C16.0866 9.94168 21.331 10.2794 23.2404 10.7618ZM87.2426 12.8361C88.1082 13.029 89.483 13.5597 90.3231 14.0179C92.0797 15.0069 94.7274 17.5636 94.7274 18.3113C94.7274 18.7937 94.7019 18.7937 94.04 18.3595C91.5706 16.8159 89.4321 16.237 86.1989 16.237C81.7691 16.237 78.5868 17.6118 72.3241 22.2429C70.4401 23.6418 68.6835 24.7755 68.4289 24.7755C67.767 24.7755 65.9595 23.6177 66.1122 23.28C66.1631 23.1112 67.7415 21.8811 69.5491 20.5545C71.3821 19.2279 73.0114 18.0219 73.1896 17.8771C74.1825 17.0088 77.3393 14.9104 78.485 14.3556C80.2416 13.4873 81.0563 13.1979 82.762 12.8361C84.6459 12.426 85.4096 12.426 87.2426 12.8361ZM23.1131 17.1777C23.5968 17.3706 24.3351 17.5395 24.7424 17.5395C25.1243 17.5395 25.5061 17.6359 25.5825 17.7565C25.6589 17.8771 26.0408 18.0219 26.4226 18.0942C28.2047 18.4078 38.7954 23.28 40.883 24.7513C41.4431 25.1373 42.4105 25.7161 43.047 26.0297C43.6834 26.3191 44.9818 27.0669 45.9492 27.6699C46.8912 28.2729 47.935 28.8759 48.2405 29.0447C48.546 29.2135 49.0551 29.5995 49.3861 29.9371C49.9716 30.516 49.9716 30.5643 49.5643 31.1914C49.3097 31.5291 48.7496 31.9873 48.3168 32.2044C47.9095 32.4456 47.1203 32.9762 46.6111 33.3863C46.0765 33.8204 45.5419 34.1822 45.4146 34.1822C45.2873 34.1822 44.7272 34.6164 44.1926 35.147C43.6325 35.6777 42.6651 36.353 42.0286 36.6425C41.3922 36.9078 40.6539 37.342 40.3738 37.5832C39.941 37.945 36.8606 39.3922 33.1691 40.96C32.5836 41.2012 31.5652 41.4182 30.9288 41.4182C30.2923 41.4182 29.5795 41.5147 29.3504 41.6353C29.1212 41.7559 27.5428 41.9006 25.8626 41.973C23.5204 42.0695 22.6548 42.0212 22.1711 41.78C21.8147 41.5871 21.2291 41.4424 20.8473 41.4182C20.1853 41.4182 18.5815 40.8394 17.0794 40.0675C16.723 39.8987 15.8829 39.4645 15.1701 39.1268C13.7953 38.4274 9.18734 34.2787 9.18734 33.7481C9.18734 33.5551 8.85638 33.121 8.44905 32.7592C4.35025 29.1171 6.69242 20.6509 12.4969 18.1907C15.501 16.9123 15.832 16.84 19.0652 16.84C21.2801 16.8159 22.4511 16.9123 23.1131 17.1777ZM88.9993 19.8309C91.3414 20.4097 93.5818 21.8569 95.262 23.883C96.5859 25.4508 96.5859 25.9332 95.262 25.1614C92.7417 23.6418 90.705 23.0871 87.7264 23.0871C83.9076 23.0871 80.4707 24.2931 76.6774 26.9463C75.5318 27.7422 74.4626 28.3935 74.2843 28.3935C73.8006 28.3935 72.0695 27.2116 72.0695 26.8739C72.0695 26.3674 77.6194 22.3393 80.0634 21.061C82.9911 19.5414 86.0461 19.1073 88.9993 19.8309ZM64.1519 26.3915C65.2466 27.0669 65.3994 27.3804 64.8902 27.8628C64.432 28.297 63.5409 28.2246 62.548 27.6457C61.5552 27.091 61.3515 26.3915 62.0898 26.0056C62.7517 25.6197 63.0063 25.692 64.1519 26.3915ZM92.3598 27.3804C94.9311 28.6347 97.1714 30.7572 97.426 32.2285C97.5278 32.7833 98.037 33.9169 98.5716 34.7611C99.4627 36.1601 99.5899 36.5701 100.074 39.9228C100.557 43.2514 100.583 43.6614 100.226 44.7709C99.5899 46.8211 98.1388 48.5819 96.4077 49.4261C95.4911 49.8602 95.262 49.8844 93.3527 49.619C89.1011 49.0402 86.1989 47.7618 78.3831 43.1066C75.6082 41.4424 72.2986 39.4886 71.0257 38.765C69.2436 37.7279 68.7599 37.342 68.8108 36.956C68.8617 36.6907 69.1927 36.3772 69.5491 36.2566C70.1346 36.0636 70.7966 36.3772 75.1499 38.958C80.6999 42.2142 83.7294 43.7338 86.708 44.7227C88.5156 45.3016 89.1266 45.3739 91.927 45.398C94.7019 45.398 95.2366 45.3257 96.1276 44.8915C96.7895 44.5538 97.1205 44.2403 97.0696 43.975C97.0187 43.7579 97.1714 43.5167 97.3751 43.4443C97.5787 43.372 97.706 43.179 97.6297 42.986C97.5533 42.8172 97.6806 42.5278 97.8842 42.3107C98.3425 41.8765 98.4189 41.2735 98.037 41.0564C97.9097 40.9841 97.3751 41.177 96.8404 41.5147C95.2875 42.4313 94.0909 42.6966 91.9524 42.5519C88.1337 42.2866 85.2314 41.0564 77.0593 36.2324C76.6011 35.9671 75.5827 35.3641 74.7935 34.9058C73.1896 33.9652 72.9605 33.2657 74.1571 32.8798C74.7171 32.6868 75.1245 32.8315 77.0848 33.9893C83.6276 37.8244 89.5594 39.4645 93.7345 38.5238C96.2804 37.945 98.2661 36.2566 97.9097 34.9782C97.7824 34.5923 97.6806 34.1581 97.6297 33.9893C97.5024 33.3863 97.2987 33.3863 96.4586 33.9893C94.6765 35.2435 94.0909 35.3882 90.6286 35.3882C88.7447 35.3882 87.319 35.2918 87.2172 35.147C87.1408 35.0023 86.8608 34.9058 86.6316 34.9058C86.1734 34.9058 79.8343 31.9632 79.1978 31.4326C78.9941 31.2637 78.6123 31.0467 78.3831 30.9743C77.6958 30.7572 77.8231 29.8648 78.5359 29.5995C78.8669 29.4789 79.2233 29.2618 79.3251 29.1171C79.5542 28.7794 83.1948 27.0669 84.1876 26.8498C86.3261 26.3674 86.8608 26.295 88.541 26.3674C90.0431 26.4156 90.6795 26.5845 92.3598 27.3804ZM59.5949 29.7201C60.766 30.4195 60.8678 30.8778 59.9768 31.4326C59.3912 31.7944 59.2894 31.7944 58.2201 31.1914C56.7945 30.3954 56.6417 30.1542 57.2018 29.5753C57.7873 28.9723 58.3729 28.9965 59.5949 29.7201ZM69.931 29.7683C71.2039 30.5401 71.3312 31.0708 70.4147 31.5291C69.8546 31.8185 69.6509 31.7702 68.6326 31.2637C67.3597 30.6125 67.1815 30.0819 68.047 29.503C68.7599 29.0206 68.6326 28.9965 69.931 29.7683ZM55.0124 33.121C55.5725 33.4828 56.0307 33.8204 56.0307 33.9169C56.0307 34.2305 55.547 34.6405 52.8484 36.5942C51.3209 37.7279 49.157 39.3198 48.0622 40.1399C42.4614 44.385 37.828 46.8211 32.8636 48.196C30.776 48.7748 26.1426 49.0402 23.9532 48.7025C20.5163 48.196 16.2648 46.1699 13.3625 43.6614C12.0387 42.5278 10.2057 40.5017 10.2057 40.1881C10.2057 39.8504 10.8676 39.9228 11.224 40.3328C11.7332 40.9117 14.9918 42.8654 16.4939 43.4926C19.1416 44.6262 21.611 45.1086 25.0988 45.2292C29.8086 45.3739 33.3473 44.6503 37.9298 42.576C41.6977 40.8876 44.0144 39.3922 51.5755 33.8204C52.5684 33.0968 53.5103 32.4939 53.6885 32.4939C53.8667 32.4939 54.4523 32.7833 55.0124 33.121ZM65.3485 33.121C66.6214 33.8204 66.7741 34.4234 65.8067 34.9058C65.2212 35.2194 65.043 35.1953 64.0246 34.6888C62.8281 34.0858 62.6499 33.6516 63.3373 32.928C63.8719 32.3732 63.9992 32.3732 65.3485 33.121ZM60.766 36.4978C61.4024 36.8596 61.8861 37.2937 61.8607 37.5108C61.8607 37.752 59.9768 39.2716 57.6091 40.9841C55.267 42.6725 51.5755 45.3739 49.4115 46.9658C44.549 50.5356 41.2649 52.4893 38.1589 53.6953C35.1039 54.9013 34.4675 55.0701 31.7434 55.5284C29.0194 55.9626 27.4919 55.9867 24.9715 55.5525C20.109 54.7083 15.6283 52.224 12.1914 48.3889C10.1802 46.1458 10.613 45.8563 13.2607 47.6653C17.2576 50.415 20.0835 51.4763 24.997 52.0551C28.3066 52.4411 32.0744 51.9828 36.0459 50.7044C37.3952 50.2703 41.7995 48.2924 43.3015 47.4241C45.0327 46.4352 53.0521 40.7188 58.0165 36.9078C58.7548 36.3289 59.4167 35.8706 59.493 35.8706C59.5694 35.8706 60.1295 36.1601 60.766 36.4978Z" fill="#6B167E" stroke="#6B167E" stroke-width="2" mask="url(#path-1-inside-1_176_2)"/>
<path d="M130.785 7.28487L130.768 7.28919L130.753 7.2921C130.754 7.29193 130.754 7.29186 130.754 7.29194C130.754 7.29261 130.719 7.30506 130.667 7.36208C130.611 7.42337 130.571 7.49752 130.556 7.55581L130.556 7.55669C130.556 7.55614 130.556 7.55586 130.556 7.55586C130.556 7.55591 130.552 7.57548 130.547 7.62648C130.54 7.68162 130.534 7.7562 130.528 7.85118C130.515 8.04072 130.503 8.29674 130.492 8.61217C130.471 9.24221 130.454 10.0951 130.442 11.0979C130.417 13.1026 130.412 15.6964 130.423 18.2831C130.434 20.8698 130.462 23.4468 130.504 25.4181C130.526 26.4043 130.551 27.2358 130.579 27.8402C130.593 28.1431 130.607 28.3842 130.622 28.5575C130.63 28.6446 130.637 28.709 130.644 28.7529C130.645 28.7643 130.647 28.7729 130.648 28.7792C130.696 28.8925 130.727 28.9483 130.749 28.9788C130.756 28.9888 130.761 28.9932 130.762 28.9945C130.762 28.9947 130.763 28.9951 130.764 28.9956C130.777 29.0008 130.822 29.0159 130.944 29.0202C131.065 29.0244 131.227 29.0173 131.46 28.9995L131.46 28.9995L131.461 28.9994C131.703 28.9813 131.868 28.9647 131.988 28.9421C132.108 28.9197 132.145 28.8979 132.152 28.893C132.154 28.8917 132.155 28.891 132.157 28.8882C132.16 28.8842 132.169 28.8725 132.181 28.8459C132.21 28.7854 132.242 28.6877 132.286 28.5101L132.288 28.4995L132.291 28.489C132.291 28.4905 132.291 28.4883 132.292 28.4817C132.295 28.4587 132.306 28.3819 132.318 28.2224C132.331 28.041 132.344 27.7938 132.356 27.4859C132.38 26.8712 132.4 26.0294 132.414 25.0197C132.443 23.0012 132.449 20.3217 132.424 17.4666L132.424 17.4664C132.386 13.0127 132.354 10.4237 132.291 8.92362C132.259 8.16941 132.22 7.71429 132.173 7.44221C132.159 7.35615 132.145 7.29881 132.134 7.26221C132.036 7.21891 131.885 7.18219 131.676 7.17411C131.421 7.16425 131.114 7.19868 130.785 7.28487ZM130.073 7.42824L130.073 7.42827L130.073 7.42824Z" fill="#6B167E" stroke="#6B167E"/>
<path d="M149.395 11.9386L148.998 12.2421C148.998 12.2425 148.998 12.2428 148.999 12.2431C150.399 14.0764 153.249 17.8138 155.667 20.9966L155.668 20.9976C157.387 23.2489 158.582 24.7535 159.096 25.2675C159.135 25.3063 159.198 25.3639 159.284 25.4077C159.379 25.4559 159.529 25.4998 159.703 25.4498C159.868 25.402 159.969 25.2923 160.023 25.2142C160.077 25.1367 160.11 25.0548 160.131 24.9894C160.21 24.7487 160.255 24.3418 160.291 23.7515C160.365 22.5308 160.409 20.2616 160.46 16.2388C160.498 13.7436 160.543 11.4607 160.587 9.79625C160.61 8.96347 160.632 8.28804 160.653 7.81903C160.661 7.6505 160.668 7.51109 160.675 7.40182C160.815 7.37587 160.997 7.35708 161.191 7.34885C161.387 7.34053 161.582 7.34361 161.74 7.35726C161.758 7.35876 161.774 7.36035 161.789 7.36198C161.808 7.51491 161.827 7.72713 161.845 7.99615C161.885 8.60336 161.92 9.46322 161.948 10.4963C162.004 12.5605 162.033 15.2957 162.035 18.0382C162.036 20.7808 162.01 23.5264 161.955 25.6116C161.927 26.6551 161.893 27.5281 161.851 28.151C161.83 28.4637 161.808 28.7048 161.786 28.8699C161.782 28.8959 161.779 28.9189 161.775 28.9391C161.744 28.9524 161.703 28.9671 161.649 28.9815C161.517 29.0168 161.349 29.0394 161.162 29.0433C160.778 29.0513 160.397 28.9791 160.163 28.8603C160.1 28.8273 159.951 28.7103 159.754 28.5055C159.567 28.3124 159.375 28.0804 159.227 27.8644L159.222 27.8572L159.217 27.8501C158.858 27.364 158.042 26.3011 157.433 25.508L157.429 25.5031L157.427 25.5006C156.666 24.5223 156.062 23.7173 155.268 22.6598C154.95 22.2355 154.601 21.7705 154.199 21.2374L154.197 21.2352C153.866 20.8004 153.27 20.0395 152.823 19.5411C152.428 19.0966 151.624 18.0975 151.073 17.3373L151.07 17.3341C149.604 15.346 148.186 13.4873 147.83 13.0979C147.776 13.0376 147.611 12.8186 147.365 12.48C147.128 12.1533 146.837 11.7451 146.543 11.3345C145.953 10.5077 144.978 9.24327 144.353 8.52689C143.83 7.89805 143.565 7.51612 143.461 7.27502C143.438 7.22266 143.428 7.18746 143.423 7.16623L143.425 7.16501L143.972 8.85126C142.929 7.59702 142.725 7.11462 143.081 6.80106C143.285 6.58398 143.871 6.58398 144.889 6.77694M149.395 11.9386C148.631 10.9497 147.486 9.40602 146.849 8.5377C145.958 7.30758 145.5 6.89754 144.889 6.77694M149.395 11.9386C150.795 13.7717 153.647 17.5103 156.065 20.6942L149.395 11.9386ZM144.889 6.77694L144.796 7.2682C144.795 7.26808 144.795 7.26795 144.794 7.26783C144.793 7.26771 144.793 7.26759 144.792 7.26748L144.889 6.77694ZM159.178 24.6857C159.178 24.6857 159.178 24.6851 159.179 24.6836C159.178 24.685 159.178 24.6857 159.178 24.6857ZM160.5 7.44787C160.5 7.44789 160.502 7.44728 160.504 7.44593C160.501 7.44716 160.5 7.44784 160.5 7.44787Z" fill="#6B167E" stroke="#6B167E"/>
<path d="M172.409 8.15185C172.435 7.06645 172.511 6.89761 173.02 6.80113L172.409 8.15185ZM172.409 8.15185C172.384 9.11665 172.409 24.6499 172.435 28.895L172.409 8.15185ZM173.136 7.28768L173.125 7.29028L173.114 7.29239C173.061 7.30243 173.024 7.31138 172.999 7.31939C172.993 7.32122 172.988 7.32289 172.984 7.32437C172.973 7.35545 172.955 7.42138 172.941 7.55113C172.925 7.6983 172.916 7.89413 172.909 8.16357L172.909 8.16504C172.884 9.11948 172.909 24.6418 172.935 28.892L172.935 28.892V28.895C172.935 28.9481 172.935 28.9911 172.936 29.0261C173.062 29.0273 173.237 29.0171 173.495 28.9992L173.496 28.9992L174.105 28.9579L174.226 19.7233C174.264 16.6218 174.322 14.1685 174.389 12.4707C174.422 11.6227 174.458 10.958 174.496 10.4935C174.515 10.2625 174.535 10.0724 174.557 9.93093C174.567 9.86145 174.58 9.792 174.596 9.73071C174.604 9.70047 174.616 9.6612 174.634 9.62019C174.646 9.59088 174.683 9.50573 174.764 9.42904C174.86 9.33792 174.973 9.2999 175.012 9.28671C175.071 9.26715 175.133 9.25238 175.193 9.24057C175.314 9.21668 175.467 9.19616 175.644 9.17783C176.001 9.14091 176.497 9.10874 177.113 9.08145C178.347 9.02678 180.091 8.99055 182.232 8.97846C182.233 8.97846 182.233 8.97846 182.234 8.97846L188.648 8.91093L188.688 8.40706C188.692 8.3307 188.697 8.26212 188.701 8.19918C188.709 8.06639 188.716 7.95875 188.718 7.8563C188.72 7.70849 188.707 7.63874 188.695 7.60344C188.688 7.58631 188.683 7.57293 188.647 7.54905C188.596 7.51569 188.491 7.46778 188.28 7.42279C187.853 7.33162 187.151 7.28304 185.99 7.25881C185.019 7.23856 183.759 7.2354 182.117 7.23127C181.813 7.23051 181.496 7.22971 181.166 7.22877L181.164 7.22876C179.078 7.21671 177.12 7.21672 175.647 7.22876C174.91 7.23478 174.296 7.24379 173.848 7.25573C173.624 7.26171 173.445 7.26834 173.314 7.27551C173.22 7.2807 173.168 7.28547 173.146 7.2875C173.133 7.28872 173.13 7.28895 173.136 7.28768Z" fill="#6B167E" stroke="#6B167E"/>
<path d="M195.249 28.8728C195.252 28.9086 195.256 28.9399 195.259 28.9668C195.281 28.9726 195.307 28.9786 195.34 28.9843C195.51 29.0137 195.764 29.0221 196.103 28.9992L196.104 28.9991L196.76 28.9567L196.833 18.3529C196.833 18.3526 196.833 18.3523 196.833 18.3521C196.846 14.6866 196.839 11.8993 196.808 10.0085C196.792 9.06195 196.77 8.34614 196.741 7.85915C196.728 7.64252 196.714 7.4787 196.7 7.36318C196.679 7.35685 196.655 7.35029 196.629 7.34363C196.481 7.3064 196.288 7.27439 196.077 7.25348C195.868 7.23267 195.654 7.22403 195.465 7.2297C195.418 7.23111 195.375 7.23337 195.335 7.23628C195.321 7.38083 195.306 7.57259 195.292 7.80954C195.257 8.41053 195.225 9.26849 195.198 10.3026C195.144 12.369 195.109 15.1208 195.096 17.8866C195.083 20.6523 195.093 23.4283 195.128 25.5432C195.145 26.6012 195.169 27.4899 195.199 28.1278C195.215 28.4477 195.231 28.698 195.249 28.8728Z" fill="#6B167E" stroke="#6B167E"/>
<path d="M208.062 7.24979C208.092 7.24603 208.127 7.24239 208.167 7.23904C208.355 7.22306 208.605 7.21715 208.864 7.22806C209.317 7.25871 209.634 7.36538 210.007 7.67061C210.415 8.00438 210.89 8.57525 211.618 9.57849C211.618 9.57864 211.618 9.57878 211.618 9.57893L212.023 9.28549C212.354 9.74377 213.041 10.6603 213.55 11.3357L208.062 7.24979ZM208.062 7.24979C208.081 7.29673 208.114 7.36559 208.169 7.46201C208.449 7.94714 209.094 8.79239 210.379 10.4233L210.379 10.4236C212.24 12.7902 214.331 15.5445 215.354 16.9501M208.062 7.24979L223.963 28.7021C224.548 29.4015 224.854 29.5463 225.618 29.5463C226.127 29.5463 226.687 29.4257 226.865 29.2568C227.298 28.8468 227.298 7.21117 226.89 6.96997M225.125 16.143C225.074 19.5551 225.023 21.7942 224.955 23.1936C224.922 23.8909 224.884 24.3939 224.837 24.7339C224.814 24.9013 224.787 25.0501 224.749 25.1698C224.731 25.229 224.704 25.3012 224.662 25.3708C224.625 25.4329 224.542 25.5515 224.386 25.6172L224.355 25.6303L224.322 25.6391C224.036 25.7167 223.779 25.6065 223.617 25.4901C223.446 25.3675 223.307 25.1902 223.222 24.9891L223.222 24.989C223.221 24.9873 223.212 24.9671 223.185 24.9217C223.159 24.8778 223.125 24.8215 223.08 24.7532C222.992 24.617 222.873 24.4432 222.731 24.2433C222.447 23.844 222.077 23.3508 221.688 22.8634C220.895 21.8697 219.644 20.2256 218.926 19.2292C218.191 18.2444 217.076 16.7807 216.466 15.9857C216.006 15.41 215.465 14.7068 215.067 14.1904C214.913 13.9904 214.781 13.8185 214.683 13.6928L214.678 13.6858L214.672 13.6786C214.468 13.3953 214.118 12.9282 213.764 12.4568C213.55 12.1713 213.335 11.8841 213.15 11.6353L224.625 16.1356M225.125 16.143L224.625 16.1356M225.125 16.143C225.125 16.1431 225.125 16.1432 225.125 16.1434L224.625 16.1356M225.125 16.143C225.163 13.6975 225.22 11.44 225.28 9.77696C225.31 8.9449 225.341 8.26455 225.371 7.78489C225.385 7.5572 225.398 7.37928 225.411 7.25353M224.625 16.1356C224.701 11.2392 224.854 7.09057 224.956 6.94585C225.159 6.63229 226.356 6.65641 226.89 6.96997M225.411 7.25353C225.403 7.25517 225.396 7.25685 225.389 7.25858C225.344 7.26974 225.322 7.27935 225.315 7.28291M225.411 7.25353C225.411 7.24638 225.412 7.2394 225.413 7.23259C225.419 7.16832 225.425 7.12656 225.429 7.10304C225.43 7.09659 225.431 7.09373 225.431 7.09373C225.431 7.09373 225.43 7.09613 225.429 7.10036C225.428 7.10485 225.424 7.11757 225.418 7.13491C225.413 7.14653 225.4 7.17906 225.375 7.21819C225.374 7.2194 225.373 7.22061 225.373 7.22182C225.37 7.22594 225.367 7.22981 225.364 7.23346C225.342 7.26407 225.322 7.27856 225.315 7.28291M225.411 7.25353C225.505 7.23292 225.636 7.22029 225.791 7.22268C226.045 7.22658 226.29 7.26866 226.467 7.3276M225.315 7.28291C225.313 7.28395 225.312 7.28441 225.312 7.28438C225.312 7.28435 225.313 7.28383 225.315 7.28291ZM226.467 7.3276C226.467 7.32497 226.467 7.32236 226.466 7.31978C226.456 7.24036 226.447 7.19487 226.442 7.17454C226.441 7.17124 226.441 7.16985 226.441 7.17008C226.441 7.17066 226.444 7.18128 226.451 7.19767C226.457 7.20944 226.469 7.23522 226.49 7.26623C226.51 7.29407 226.555 7.35253 226.636 7.4002L226.89 6.96997M226.467 7.3276C226.535 7.3501 226.593 7.37504 226.637 7.40126L226.89 6.96997M226.467 7.3276C226.487 7.4825 226.506 7.71153 226.525 8.01096C226.563 8.61701 226.594 9.47615 226.619 10.5086C226.67 12.5717 226.694 15.3071 226.693 18.0498C226.691 20.7925 226.663 23.5384 226.609 25.6224C226.582 26.6653 226.548 27.5375 226.508 28.1592C226.488 28.4714 226.467 28.7121 226.445 28.8768C226.443 28.8943 226.441 28.9104 226.439 28.9252M226.439 28.9252C226.452 28.9203 226.465 28.9154 226.477 28.9106C226.517 28.8943 226.532 28.884 226.532 28.8842C226.532 28.8843 226.528 28.8873 226.521 28.8939C226.478 28.935 226.453 28.9743 226.442 28.9936C226.43 29.015 226.423 29.0316 226.42 29.0388C226.414 29.0524 226.415 29.0557 226.418 29.0411C226.423 29.0189 226.43 28.9814 226.439 28.9252ZM226.439 28.9252C226.39 28.9427 226.328 28.9606 226.255 28.9772C226.066 29.02 225.836 29.0463 225.618 29.0463C225.262 29.0463 225.089 29.0108 224.948 28.9401C224.799 28.8645 224.63 28.7201 224.346 28.3811L224.339 28.3731L224.339 28.3731C223.123 26.9807 221.962 25.5697 220.956 24.1868L220.952 24.1823L220.952 24.1823C219.725 22.5347 218.931 21.54 217.555 19.8265L217.554 19.8249C216.975 19.1095 215.988 17.8142 215.354 16.9501M215.354 16.9501C215.354 16.9503 215.355 16.9506 215.355 16.9508L214.95 17.2451L215.354 16.9495C215.354 16.9497 215.354 16.9499 215.354 16.9501Z" fill="#6B167E" stroke="#6B167E"/>
<path d="M237.68 7.20087C237.621 7.20419 237.574 7.20966 237.537 7.21553C237.527 7.28071 237.515 7.36746 237.504 7.48033C237.468 7.8492 237.438 8.42979 237.418 9.29443C237.377 11.0197 237.37 13.8288 237.396 18.2311L237.469 28.9615L237.977 28.9994L237.977 28.9994L237.98 28.9997C238.08 29.0078 238.164 29.016 238.239 29.0232C238.355 29.0344 238.447 29.0434 238.541 29.0466C238.684 29.0514 238.731 29.0354 238.745 29.0291C238.748 29.0274 238.753 29.0253 238.76 29.0169C238.77 29.0071 238.788 28.9836 238.812 28.9344C238.863 28.8297 238.918 28.6466 238.966 28.3314C239.062 27.7015 239.109 26.6875 239.129 25.0551C239.147 23.6987 239.146 21.9379 239.145 19.6502C239.145 19.1989 239.145 18.7272 239.145 18.234C239.145 15.2818 239.12 12.5595 239.082 10.5553C239.063 9.55274 239.04 8.73229 239.017 8.15344C239.005 7.86331 238.993 7.63823 238.981 7.48281C238.979 7.46337 238.978 7.44543 238.977 7.42892C238.947 7.41405 238.906 7.39563 238.852 7.37519C238.697 7.31767 238.495 7.26768 238.279 7.23536C238.063 7.20307 237.852 7.19114 237.68 7.20087Z" fill="#6B167E" stroke="#6B167E"/>
<path d="M250.13 7.45886L250.129 7.46005C250.109 7.48657 250.056 7.57228 250.006 7.87846C249.956 8.18287 249.917 8.65234 249.889 9.40393C249.832 10.9027 249.819 13.4423 249.819 17.8474C249.832 22.5077 249.845 25.0394 249.905 26.465C249.935 27.1817 249.976 27.5893 250.027 27.8379C250.074 28.0621 250.12 28.1173 250.15 28.1512C250.372 28.397 250.513 28.5312 250.712 28.634C250.918 28.7405 251.226 28.8323 251.805 28.8988C252.974 29.0333 255.043 29.0463 259.121 29.0463H266.728L267.316 28.4504C267.499 28.258 267.601 28.1476 267.675 28.0366C267.739 27.9403 267.787 27.8341 267.825 27.6551C267.911 27.2497 267.926 26.5788 267.939 25.1038L267.939 25.1018C267.977 22.1411 267.958 17.6776 267.91 13.935C267.886 12.0638 267.855 10.3753 267.821 9.14651C267.803 8.53153 267.785 8.03502 267.767 7.68941C267.761 7.58262 267.756 7.49249 267.75 7.41901C267.733 7.41282 267.714 7.40645 267.694 7.39994C267.544 7.3506 267.352 7.30228 267.16 7.27017L267.151 7.2687L267.142 7.26692L267.106 7.25951C266.906 7.21869 266.767 7.19035 266.65 7.17932C266.537 7.16866 266.5 7.18121 266.496 7.18287C266.496 7.18298 266.496 7.18305 266.496 7.18305C266.496 7.18307 266.496 7.18301 266.496 7.18285L266.495 7.18342L266.492 7.18695C266.485 7.19401 266.469 7.21374 266.447 7.25766C266.4 7.35137 266.347 7.51691 266.3 7.80172C266.207 8.37115 266.158 9.27933 266.134 10.7164C266.113 12.0592 266.113 13.8355 266.113 16.1836C266.113 16.3341 266.113 16.4869 266.113 16.6421C266.113 19.1889 266.094 21.5434 266.065 23.2893C266.051 24.1619 266.034 24.8845 266.016 25.4037C266.007 25.6628 265.997 25.8746 265.987 26.0304C265.983 26.1078 265.977 26.1758 265.971 26.2308L265.971 26.2346C265.967 26.2695 265.958 26.3561 265.932 26.4319L265.932 26.4319L265.928 26.4423C265.815 26.7403 265.56 26.8775 265.312 26.9491C265.074 27.0178 264.74 27.0574 264.284 27.0846C263.358 27.14 261.762 27.1519 259.019 27.1519C256.741 27.1519 255.14 27.1338 254.078 27.0881C253.548 27.0653 253.14 27.0351 252.844 26.9946C252.696 26.9745 252.563 26.95 252.451 26.9182C252.358 26.8919 252.203 26.841 252.081 26.7254C251.991 26.6397 251.945 26.5403 251.921 26.483C251.894 26.417 251.875 26.3471 251.859 26.2806C251.828 26.1473 251.804 25.9792 251.784 25.7817C251.742 25.3838 251.711 24.8097 251.687 24.0322C251.639 22.4738 251.62 20.0547 251.62 16.4974V7.30896L251.44 7.2624C250.939 7.14417 250.678 7.12791 250.514 7.16134C250.394 7.18594 250.287 7.24466 250.13 7.45886Z" fill="#6B167E" stroke="#6B167E"/>
<path d="M278.779 7.21993C278.769 7.28461 278.758 7.36999 278.747 7.48035C278.71 7.84923 278.681 8.42982 278.66 9.29446C278.619 11.0197 278.613 13.8288 278.638 18.2312L278.711 28.9257H279.08C279.266 28.9257 279.388 28.9195 279.473 28.9065C279.542 28.8961 279.567 28.8842 279.572 28.8816C279.581 28.8713 279.623 28.813 279.69 28.5794C279.691 28.5731 279.694 28.5563 279.698 28.5251C279.703 28.4828 279.709 28.4262 279.714 28.3544C279.726 28.2111 279.738 28.0191 279.75 27.7822C279.774 27.309 279.796 26.6691 279.815 25.9068C279.853 24.3829 279.878 22.3791 279.878 20.2601V20.2353V20.2104V20.1856V20.1607V20.1359V20.1111V20.0863V20.0615V20.0368V20.012V19.9873V19.9626V19.9378V19.9131V19.8885V19.8638V19.8391V19.8145V19.7899V19.7653V19.7407V19.7161V19.6915V19.667V19.6424V19.6179V19.5934V19.5689V19.5444V19.52V19.4955V19.4711V19.4467V19.4223V19.3979V19.3735V19.3492V19.3249V19.3006V19.2763V19.252V19.2277V19.2035V19.1793V19.1551V19.1309V19.1067V19.0825V19.0584V19.0343V19.0102V18.9861V18.9621V18.938V18.914V18.89V18.866V18.8421V18.8181V18.7942V18.7703V18.7464V18.7225V18.6987V18.6749V18.6511V18.6273V18.6035V18.5798V18.5561V18.5324V18.5087V18.485V18.4614V18.4378V18.4142V18.3906V18.3671V18.3436V18.32V18.2966V18.2731V18.2497V18.2263V18.2029V18.1795V18.1562V18.1328V18.1095V18.0863V18.063V18.0398V18.0166V17.9934V17.9703V17.9471V17.924V17.901V17.8779V17.8549V17.8319V17.8089V17.7859V17.763V17.7401V17.7172V17.6944V17.6715V17.6487V17.626V17.6032V17.5805V17.5578V17.5351V17.5125V17.4899V17.4673V17.4447V17.4222V17.3997V17.3772V17.3548V17.3323V17.3099V17.2876V17.2652V17.2429V17.2206V17.1984V17.1762V17.154V17.1318V17.1097V17.0875V17.0655V17.0434V17.0214V16.9994V16.9774V16.9555V16.9336V16.9117V16.8899V16.8681V16.8463V16.8246V16.8028V16.7812V16.7595V16.7379V16.7163V16.6947V16.6732V16.6517V16.6302V16.6088V16.5874V16.566V16.5447V16.5234V16.5021V16.4809V16.4597V16.4385V16.4174V16.3963V16.3752V16.3541V16.3331V16.3122V16.2912V16.2703V16.2495V16.2286V16.2078V16.1871V16.1663V16.1456V16.125V16.1043V16.0837V16.0632V16.0427V16.0222V16.0017V15.9813V15.9609V15.9406V15.9203V15.9V15.8798V15.8596V15.8394V15.8193V15.7992V15.7792V15.7592V15.7392V15.7193V15.6994V15.6795V15.6597V15.6399V15.6202V15.6005V15.5808V15.5612V15.5416V15.522V15.5025V15.483V15.4636V15.4442V15.4248V15.4055V15.3862V15.367V15.3478V15.3287V15.3095V15.2905V15.2714V15.2524V15.2335V15.2146V15.1957V15.1769V15.1581V15.1393V15.1206V15.1019V15.0833V15.0647V15.0462V15.0277V15.0093V14.9908V14.9725V14.9541V14.9359V14.9176V14.8994V14.8813V14.8631V14.8451V14.8271V14.8091V14.7911V14.7732V14.7554V14.7376V14.7198V14.7021V14.6844V14.6668V14.6492V14.6317V14.6142V14.5967V14.5793V14.562V14.5447V14.5274V14.5102V14.493V14.4759V14.4588V14.4418V14.4248V14.4079V14.391V14.3741V14.3573V14.3406V14.3239V14.3072V14.2906V14.274V14.2575V14.241V14.2246V14.2082V14.1919V14.1756V14.1594V14.1432V14.1271V14.111V14.095V14.079V14.0631V14.0472V14.0314V14.0156V13.9999V13.9842V13.9686V13.953V13.9374V13.922V13.9065V13.8911V13.8758V13.8605V13.8453V13.8301V13.815V13.7999V13.7849V13.7699V13.755V13.7402V13.7254V13.7106V13.6959V13.6812V13.6666V13.6521V13.6376V13.6231V13.6087V13.5944V13.5801V13.5659V13.5517V13.5376V13.5235V13.5095V13.4955V13.4816V13.4678V13.454V13.4402V13.4266V13.4129V13.3993V13.3858V13.3724V13.3589V13.3456V13.3323V13.319V13.3059V13.2927V13.2797V13.2666V13.2537V13.2408V13.2279V13.2151V13.2024V13.1897V13.1771V13.1645V13.152V13.1396V13.1272V13.1149V13.1026V13.0904V13.0782V13.0661V13.0541V13.0421V13.0302V13.0183V13.0065V12.9947V12.9831V12.9714V12.9599V12.9484V12.9369V12.9255V12.9142V12.9029V12.8917V12.8806V12.8695V12.8585V12.8475V12.8366V12.8258V12.815V12.8043V12.7936V12.783V12.7725V12.762V12.7516V12.7412V12.731V12.7207V12.7106V12.7005V12.6904V12.6805V12.6706V12.6607V12.6509V12.6412V12.6316V12.622V12.6124V12.603V12.5936V12.5842V12.575V12.5658V12.5566V12.5475V12.5385V12.5296V12.5207V12.5119V12.5031V12.4944V12.4858V12.4773V12.4688V12.4604V12.452V12.4437V12.4355V12.4273V12.4192V12.4112V12.4033V12.3954V12.3875V12.3798V12.3721V12.3645V12.3569V12.3494V12.342V12.3347V12.3274V12.3202V12.313V12.306V12.299V12.292V12.2852V12.2784V12.2716V12.265V12.2584V12.2519V12.2454V12.239V12.2327V12.2265V12.2203V12.2142V12.2082V12.2022V12.1963V12.1905V12.1848V12.1791V12.1735V12.1679V12.1625V12.1571V12.1518V12.1465V12.1413V12.1362V12.1312V12.1263V12.1214V12.1166V12.1118V12.1072V12.1026V12.098V12.0936V12.0892V12.0849V12.0807V12.0765V12.0725V12.0685V12.0645V12.0607V12.0569V12.0532V12.0496V12.046V12.0425V12.0391V12.0358V12.0325V12.0294V12.0263V12.0232V12.0203V12.0174V12.0146V12.0119V12.0092V12.0067V12.0042V12.0017V11.9994V11.9971V11.995V11.9928V11.9908V11.9889V11.987C279.878 11.8623 279.886 11.7377 279.907 11.6229C279.927 11.5156 279.967 11.37 280.066 11.2418C280.183 11.0899 280.362 10.9922 280.57 10.9909C280.745 10.9898 280.892 11.0575 280.99 11.1152C281.189 11.2313 281.4 11.4325 281.617 11.6694C281.843 11.9163 282.112 12.2416 282.427 12.6434L282.427 12.6433L282.432 12.6508C282.964 13.3559 283.926 14.5875 284.734 15.6229C284.889 15.8208 285.038 16.0114 285.177 16.1899C286.039 17.2943 287.04 18.607 287.383 19.1064C287.828 19.7388 288.264 20.2521 288.619 20.5862C288.788 20.745 288.925 20.85 289.025 20.9094C289.036 20.8988 289.047 20.8873 289.06 20.8751C289.169 20.7649 289.314 20.6077 289.486 20.4123C289.829 20.0232 290.261 19.5006 290.702 18.9399C290.947 18.6219 291.157 18.3507 291.343 18.1111C292.463 16.6635 292.689 16.372 294.431 13.9167L294.433 13.914C295.182 12.8735 296.007 11.7936 296.301 11.4827C296.527 11.2178 297.423 10.0636 298.277 8.87339L298.279 8.87046C298.648 8.36385 298.923 7.98003 299.123 7.68465C299.265 7.47391 299.359 7.32094 299.42 7.20945C299.345 7.19597 299.249 7.18662 299.132 7.18662C298.942 7.18662 298.731 7.21127 298.53 7.26062C298.29 7.32789 297.996 7.48914 297.287 8.31735C296.577 9.14674 295.513 10.5646 293.715 13.0294L293.715 13.0294L293.712 13.0334C293.502 13.3163 293.322 13.5569 293.165 13.7681C292.412 14.7802 292.163 15.1152 291.339 16.1763M278.779 7.21993L291.339 16.1763M278.779 7.21993C278.806 7.21622 278.838 7.21287 278.876 7.21061C279.024 7.20183 279.204 7.21212 279.388 7.24089C279.572 7.26974 279.74 7.31421 279.864 7.36407C279.953 7.39948 279.989 7.42544 279.997 7.43071M278.779 7.21993L290.543 17.3232M291.339 16.1763C291.339 16.1761 291.339 16.1759 291.34 16.1757L290.944 15.8704L291.339 16.177C291.339 16.1768 291.339 16.1765 291.339 16.1763ZM290.543 17.3232C290.524 17.4332 290.479 17.5203 290.458 17.5603C290.418 17.6354 290.367 17.7111 290.312 17.7824C290.204 17.923 290.056 18.0778 289.884 18.2126M290.543 17.3232C290.549 17.2909 290.553 17.2566 290.553 17.221C290.553 17.28 290.54 17.3245 290.534 17.3422M290.543 17.3232C290.539 17.3321 290.536 17.3384 290.534 17.3422M289.884 18.2126C289.78 18.3002 289.643 18.4138 289.492 18.4836C289.296 18.5741 289.082 18.5921 288.859 18.5107C288.678 18.4443 288.516 18.3196 288.372 18.1959C288.221 18.0657 288.04 17.8899 287.82 17.6756L287.82 17.6756L287.816 17.672C287.554 17.4109 287.314 17.153 287.138 16.9436C287.05 16.8399 286.972 16.741 286.913 16.6556C286.884 16.6137 286.853 16.5655 286.827 16.5157L286.826 16.5133C286.816 16.4954 286.791 16.4473 286.773 16.3809M289.884 18.2126C289.886 18.2105 289.889 18.2085 289.891 18.2065L289.569 17.824M289.884 18.2126C289.881 18.2148 289.878 18.217 289.875 18.2192L289.569 17.824M286.773 16.3809C286.759 16.3572 286.738 16.3226 286.708 16.276C286.633 16.1614 286.522 16.0004 286.381 15.8021C286.099 15.4076 285.709 14.8826 285.278 14.3192M286.773 16.3809C286.761 16.3379 286.752 16.2873 286.752 16.2321C286.752 16.297 286.766 16.3448 286.77 16.3599C286.776 16.3802 286.782 16.3941 286.784 16.3988C286.786 16.4033 286.787 16.4058 286.787 16.4058C286.787 16.4058 286.785 16.4029 286.782 16.3966C286.779 16.392 286.776 16.3868 286.773 16.3809ZM285.278 14.3192C284.132 12.8587 282.859 11.2121 281.849 9.89402C281.345 9.23463 280.905 8.65677 280.581 8.22518C280.294 7.84398 280.078 7.55264 279.997 7.43071M285.278 14.3192C285.279 14.3201 285.28 14.3209 285.281 14.3218L285.674 14.0131M285.278 14.3192C285.278 14.3183 285.277 14.3174 285.276 14.3165L285.674 14.0131M279.997 7.43071C279.998 7.43147 279.999 7.4318 279.999 7.43167C280 7.43115 279.992 7.42341 279.981 7.40638L280.404 7.13887M279.997 7.43071C279.99 7.41931 279.983 7.40939 279.978 7.40101L280.404 7.13887M280.404 7.13887C280.582 7.42831 283.383 11.0945 285.674 14.0131M280.404 7.13887C280.175 6.77707 278.8 6.55999 278.393 6.82531C278.164 6.97003 278.087 9.43026 278.138 18.2341L285.674 14.0131M285.674 14.0131C286.539 15.1467 287.252 16.1356 287.252 16.2321C287.252 16.3286 287.66 16.811 288.169 17.3175M285.674 14.0131L288.169 17.3175M289.569 17.824C289.111 18.2099 289.06 18.1858 288.169 17.3175M289.569 17.824L288.169 17.3175M290.534 17.3422C290.531 17.3519 290.53 17.3535 290.533 17.3449C290.534 17.3442 290.534 17.3433 290.534 17.3422ZM288.912 21.0112C288.912 21.0112 288.913 21.0105 288.916 21.0086C288.913 21.0102 288.912 21.0111 288.912 21.0112ZM299.503 7.02366C299.503 7.02375 299.502 7.02581 299.501 7.02962C299.503 7.02548 299.503 7.02357 299.503 7.02366ZM299.615 7.27494C299.615 7.27494 299.614 7.27469 299.613 7.27423L299.615 7.27494ZM289.123 20.9569C289.123 20.9567 289.121 20.956 289.117 20.9553C289.121 20.9566 289.123 20.957 289.123 20.9569ZM279.572 28.8813C279.572 28.8813 279.572 28.8813 279.572 28.8813L279.572 28.8813ZM279.572 28.8818C279.57 28.8827 279.57 28.8834 279.57 28.8835C279.57 28.8836 279.57 28.8831 279.572 28.8818Z" fill="#6B167E" stroke="#6B167E"/>
<path d="M143.48 20.4971L143.48 20.4985L143.528 28.9257H144.049H144.572L144.644 21.9692L144.644 21.9675L144.693 14.6613L144.159 13.9523L144.159 13.9523L144.156 13.9484C143.937 13.6522 143.66 13.2911 143.415 12.9812L143.48 20.4971Z" fill="#6B167E" stroke="#6B167E"/>
<path d="M299.389 14.7014C299.38 14.0559 299.368 13.5109 299.354 13.0909C299.196 13.312 299.006 13.5836 298.815 13.8623L298.815 13.8624L298.81 13.869L298.215 14.7043L298.19 21.8296L298.19 21.8308C298.177 23.9989 298.19 25.8382 298.225 27.1512C298.242 27.8087 298.265 28.3283 298.292 28.6892C298.301 28.8085 298.311 28.9062 298.32 28.9835C298.339 28.987 298.361 28.9904 298.384 28.9935C298.546 29.0154 298.748 29.0206 298.936 29.0008L298.936 29.0006L298.947 28.9998L299.357 28.9655L299.405 20.8121C299.405 20.8121 299.405 20.812 299.405 20.8119C299.417 18.4382 299.411 16.277 299.389 14.7014ZM298.177 28.9467C298.177 28.9468 298.178 28.9474 298.181 28.9486C298.179 28.9473 298.177 28.9467 298.177 28.9467Z" fill="#6B167E" stroke="#6B167E"/>
<path d="M208.412 13.472L208.411 13.4715C208.329 13.3768 208.248 13.2859 208.17 13.2007C208.151 13.6052 208.135 14.126 208.122 14.7417C208.087 16.3104 208.068 18.4772 208.068 20.8631V29.0463H208.586H209.104V21.8038V14.2718L208.412 13.472Z" fill="#6B167E" stroke="#6B167E"/>
<path d="M178.055 19.5902L178.055 19.5901L178.062 19.5968C178.135 19.6615 178.275 19.7569 178.973 19.8129C179.662 19.8683 180.778 19.8807 182.695 19.8807C183.924 19.8807 184.858 19.8746 185.57 19.8449C186.291 19.8149 186.747 19.7618 187.04 19.6814C187.321 19.6043 187.374 19.5238 187.395 19.4872C187.436 19.4135 187.465 19.2754 187.465 18.9335C187.465 18.887 187.465 18.8435 187.465 18.8026C187.465 18.6685 187.465 18.5614 187.461 18.464C187.456 18.3383 187.443 18.2725 187.431 18.2359C187.423 18.2125 187.418 18.2085 187.414 18.2047C187.413 18.2045 187.413 18.2042 187.413 18.204C187.4 18.1934 187.356 18.1633 187.239 18.1309C186.991 18.0621 186.567 18.0209 185.825 18.0019C185.187 17.9856 184.354 17.9859 183.257 17.9862C183.1 17.9862 182.938 17.9863 182.771 17.9863C181.042 17.9863 179.806 18.0104 178.981 18.0578C178.567 18.0816 178.268 18.1106 178.067 18.1428C177.987 18.1557 177.93 18.1678 177.892 18.1779C177.87 18.213 177.844 18.2706 177.822 18.3594C177.79 18.4924 177.777 18.6593 177.79 18.8371C177.818 19.2253 177.951 19.5015 178.055 19.5902ZM177.842 18.1937C177.843 18.1937 177.845 18.1929 177.848 18.1911C177.844 18.1927 177.842 18.1936 177.842 18.1937Z" fill="#6B167E" stroke="#6B167E"/>
<path d="M263.312 47.0815C263.312 47.2815 263.33 47.4829 263.366 47.6847C263.348 47.3555 263.356 47.0028 263.382 46.6166C263.394 46.3975 263.408 46.1972 263.425 46.0119C263.348 46.3517 263.312 46.7061 263.312 47.0815Z" fill="#410C61" stroke="#6B167E"/>
<path d="M285.988 43.5118C285.988 43.3495 285.994 43.1953 286.01 43.047C285.849 43.469 285.865 43.8947 286.063 44.311C285.996 44.0607 285.988 43.7932 285.988 43.5118Z" fill="#410C61" stroke="#6B167E"/>
<path d="M133.704 49.1986C133.561 49.4065 133.426 49.6032 133.3 49.7895H133.331H133.673C133.621 49.6864 133.616 49.5913 133.616 49.5454C133.616 49.4864 133.625 49.4366 133.633 49.4046C133.647 49.3398 133.671 49.2783 133.691 49.2301C133.695 49.2198 133.7 49.2093 133.704 49.1986ZM146.274 49.7895H146.644C146.641 49.785 146.638 49.7805 146.635 49.7759L146.574 49.6898C146.464 49.5337 146.344 49.3642 146.219 49.1862C146.229 49.2113 146.238 49.2357 146.247 49.2593C146.268 49.3191 146.291 49.3913 146.303 49.4657C146.309 49.5032 146.315 49.5552 146.311 49.6145C146.309 49.6553 146.302 49.7187 146.274 49.7895Z" fill="#410C61" stroke="#6B167E"/>
<path d="M170.704 46.5026C170.727 44.3267 170.762 42.834 170.818 41.8499C170.825 41.9819 170.831 42.1208 170.838 42.2661C170.888 43.4176 170.92 44.9417 170.93 46.504L170.704 46.5026ZM170.704 46.5026L170.93 46.5051M170.704 46.5026C170.678 50.6512 170.551 52.7014 170.373 52.7014C170.22 52.7014 169.456 52.1226 168.667 51.4231C167.878 50.7236 166.07 49.1799 164.67 47.9981C163.27 46.8162 161.029 44.9107 159.706 43.7529C158.382 42.5952 156.88 41.3168 156.396 40.9068L170.93 46.5051M170.93 46.5051L171.204 46.5081C171.204 46.5076 171.204 46.5072 171.204 46.5067C171.228 44.3096 171.263 42.8207 171.319 41.8513C171.503 45.4259 171.479 53.5994 171.162 53.7868C171.035 53.8592 170.755 53.8351 170.551 53.7386C170.271 53.5939 165.001 49.2041 163.703 48.0222C161.68 46.2086 157.389 42.634 156.056 41.6319C156.057 41.6287 156.058 41.6261 156.058 41.6242M170.93 46.5051L154.538 40.3279C154.436 40.4003 154.359 43.4394 154.359 47.0815C154.359 53.4974 154.359 53.6662 154.869 53.6662C155.352 53.6662 155.378 53.4974 155.378 47.5157C155.378 44.5118 155.416 42.6683 155.512 41.855C155.501 41.8477 155.492 41.8413 155.483 41.8356C155.466 41.8243 155.458 41.8201 155.458 41.82C155.458 41.82 155.458 41.8202 155.459 41.8205L155.459 41.8205C155.461 41.8214 155.473 41.8279 155.493 41.8354L155.494 41.8358C155.497 41.8369 155.503 41.8396 155.514 41.8428C155.552 41.5215 155.6 41.3651 155.658 41.3651C155.687 41.3651 155.828 41.4609 156.055 41.6313C156.057 41.6283 156.058 41.6259 156.058 41.6242M156.058 41.6242C156.058 41.6237 156.058 41.6233 156.059 41.623L156.058 41.6242ZM171.111 40.2073L171.213 40.5316C171.22 40.5801 171.227 40.6337 171.234 40.692C171.118 40.7212 171.013 40.704 170.93 40.6688C170.979 40.3753 171.039 40.2346 171.111 40.2073ZM171.111 40.2073C171.143 40.1973 171.172 40.28 171.199 40.4402L171.111 40.2073ZM155.12 40.6974C155.063 40.68 155.018 40.6718 154.985 40.6686C154.979 40.7397 154.972 40.8274 154.966 40.932C154.945 41.2753 154.926 41.769 154.91 42.379C154.878 43.5975 154.859 45.2633 154.859 47.0815C154.859 48.7187 154.859 49.942 154.868 50.8568C154.876 50.0253 154.878 48.9381 154.878 47.5157C154.878 45.4047 154.897 43.8575 154.942 42.8354C154.964 42.3272 154.994 41.9335 155.033 41.6607C155.052 41.5288 155.078 41.3978 155.116 41.2895C155.134 41.238 155.167 41.1579 155.226 41.0815C155.271 41.0236 155.366 40.925 155.516 40.8839C155.361 40.7911 155.229 40.7308 155.12 40.6974ZM170.803 52.9802C170.769 53.026 170.701 53.1021 170.596 53.152C170.655 53.1976 170.703 53.2345 170.741 53.2624C170.754 53.2724 170.765 53.2803 170.773 53.2863C170.78 53.2269 170.787 53.1592 170.794 53.0831C170.797 53.05 170.801 53.0157 170.803 52.9802Z" fill="#410C61" stroke="#6B167E"/>
<path d="M192.274 49.3607C192.288 49.4826 192.278 49.6427 192.203 49.7895H192.522H192.645C192.518 49.6027 192.385 49.4083 192.246 49.2058C192.259 49.2578 192.269 49.3096 192.274 49.3607ZM179.654 49.7895C179.575 49.6338 179.572 49.4638 179.589 49.3411C179.484 49.4925 179.379 49.6423 179.277 49.7895H179.334H179.654Z" fill="#410C61" stroke="#6B167E"/>
<mask id="path-19-inside-2_176_2" fill="white">
<path d="M199.726 46.9609L199.803 53.7869H206.371C210.546 53.7869 212.914 53.6904 212.914 53.5457C212.914 53.4009 210.597 53.2562 206.753 53.1839L200.567 53.0633L200.49 46.5991C200.439 41.0756 200.388 40.1591 200.057 40.1591C199.726 40.1591 199.676 41.0515 199.726 46.9609Z"/>
</mask>
<path d="M199.726 46.9609L199.803 53.7869H206.371C210.546 53.7869 212.914 53.6904 212.914 53.5457C212.914 53.4009 210.597 53.2562 206.753 53.1839L200.567 53.0633L200.49 46.5991C200.439 41.0756 200.388 40.1591 200.057 40.1591C199.726 40.1591 199.676 41.0515 199.726 46.9609Z" fill="#410C61"/>
<path d="M199.726 46.9609L198.726 46.9721L198.726 46.9695L199.726 46.9609ZM199.803 53.7869V54.7869H198.814L198.803 53.7981L199.803 53.7869ZM206.753 53.1839L206.734 54.1837L206.733 54.1837L206.753 53.1839ZM200.567 53.0633L200.547 54.0631L199.578 54.0442L199.567 53.0751L200.567 53.0633ZM200.49 46.5991L199.49 46.6109L199.49 46.6083L200.49 46.5991ZM200.726 46.9497L200.803 53.7757L198.803 53.7981L198.726 46.9721L200.726 46.9497ZM199.803 52.7869H206.371V54.7869H199.803V52.7869ZM206.371 52.7869C208.454 52.7869 210.075 52.7628 211.17 52.7213C211.721 52.7004 212.122 52.6757 212.377 52.6496C212.439 52.6432 212.488 52.6372 212.525 52.6319C212.544 52.6292 212.558 52.6269 212.568 52.6251C212.579 52.6232 212.584 52.6222 212.583 52.6222C212.583 52.6223 212.581 52.6228 212.577 52.6238C212.573 52.6249 212.566 52.6267 212.557 52.6294C212.543 52.6338 212.507 52.6455 212.46 52.6677C212.422 52.6856 212.32 52.7362 212.214 52.838C212.106 52.9421 211.914 53.1809 211.914 53.5457H213.914C213.914 53.9195 213.717 54.1673 213.6 54.2802C213.485 54.3909 213.369 54.4502 213.313 54.4767C213.195 54.5323 213.083 54.5597 213.025 54.5729C212.891 54.6031 212.734 54.6235 212.58 54.6392C212.261 54.6719 211.809 54.6985 211.246 54.7198C210.114 54.7627 208.464 54.7869 206.371 54.7869V52.7869ZM211.914 53.5457C211.914 53.8994 212.095 54.1338 212.198 54.2377C212.3 54.3399 212.399 54.3923 212.437 54.4115C212.483 54.4349 212.519 54.4477 212.534 54.4526C212.551 54.4583 212.561 54.4609 212.561 54.4609C212.562 54.4611 212.558 54.4601 212.548 54.4581C212.539 54.4562 212.526 54.4537 212.508 54.4507C212.473 54.4448 212.426 54.4379 212.366 54.4304C212.122 54.3995 211.739 54.3671 211.215 54.3359C210.175 54.2737 208.65 54.2198 206.734 54.1837L206.772 52.184C208.7 52.2203 210.256 52.2749 211.335 52.3394C211.871 52.3714 212.307 52.4069 212.617 52.4462C212.766 52.465 212.921 52.4888 213.052 52.5222C213.11 52.5368 213.221 52.567 213.337 52.6256C213.393 52.6538 213.505 52.7153 213.616 52.8265C213.728 52.9394 213.914 53.1829 213.914 53.5457H211.914ZM206.733 54.1837L200.547 54.0631L200.586 52.0635L206.772 52.1841L206.733 54.1837ZM199.567 53.0751L199.49 46.6109L201.49 46.5873L201.566 53.0515L199.567 53.0751ZM199.49 46.6083C199.465 43.8346 199.439 42.2581 199.381 41.3734C199.351 40.9126 199.316 40.7291 199.3 40.6782C199.292 40.6515 199.318 40.762 199.435 40.8883C199.593 41.0597 199.824 41.1591 200.057 41.1591V39.1591C200.374 39.1591 200.678 39.2871 200.903 39.5302C201.086 39.7282 201.171 39.9535 201.215 40.099C201.303 40.3925 201.346 40.7834 201.377 41.2422C201.439 42.1967 201.465 43.8402 201.49 46.5899L199.49 46.6083ZM200.057 41.1591C200.285 41.1591 200.519 41.0639 200.683 40.8849C200.803 40.7538 200.828 40.6386 200.82 40.6668C200.805 40.7198 200.771 40.9112 200.747 41.3935C200.702 42.3197 200.701 43.9868 200.726 46.9523L198.726 46.9695C198.701 44.0257 198.7 42.2918 198.75 41.2944C198.774 40.815 198.812 40.4139 198.898 40.115C198.94 39.9671 199.023 39.736 199.209 39.5331C199.439 39.2822 199.747 39.1591 200.057 39.1591V41.1591Z" fill="#6B167E" mask="url(#path-19-inside-2_176_2)"/>
<path d="M224.179 47.6541C224.155 47.6437 224.131 47.6325 224.107 47.6205L224.456 47.9457L224.563 48.0448L224.568 47.94L224.717 47.8009L224.798 47.7253C224.558 47.7953 224.323 47.7172 224.179 47.6541Z" fill="#410C61" stroke="#6B167E"/>
<path d="M244.737 40.6591C244.69 40.6591 244.644 40.6591 244.598 40.6591L244.6 40.7523L244.704 46.0567L244.746 40.6591C244.743 40.6591 244.74 40.6591 244.737 40.6591Z" fill="#410C61" stroke="#6B167E"/>
<path d="M257.966 46.9127C257.966 48.6481 257.966 49.9304 257.975 50.8788C257.984 49.9304 257.984 48.6481 257.984 46.9127C257.984 45.1773 257.984 43.895 257.975 42.9466C257.966 43.895 257.966 45.1773 257.966 46.9127Z" fill="#410C61" stroke="#6B167E"/>
</svg>
