<svg width="346" height="197" viewBox="0 0 346 197" fill="none" xmlns="http://www.w3.org/2000/svg">
<mask id="path-1-inside-1_282_5" fill="white">
<path d="M42.505 0.576903C41.8261 0.978902 40.0441 1.38089 38.5166 1.38089C37.0739 1.38089 35.5464 1.70249 35.2918 2.18489C35.0373 2.58689 34.0189 2.98889 33.0854 2.98889C29.4364 2.98889 21.4595 7.89328 15.6889 13.7625C6.26931 23.3301 6.86334 22.2045 1.2625 39.2492C-0.434719 44.5556 -0.434719 74.0624 1.34737 76.9568C2.02625 78.0824 2.53542 80.0924 2.62028 81.3788C2.62028 82.7456 2.95973 84.1928 3.38403 84.5948C3.80834 85.0772 4.40237 87.5696 4.65695 90.2228C4.91153 92.876 5.50556 97.3784 5.92987 100.273C6.43904 103.167 7.20279 107.991 7.62709 111.127C8.0514 114.182 8.81515 117.8 9.23945 119.167C11.1913 124.554 11.955 127.368 11.955 128.895C11.955 129.78 12.6339 131.95 13.5674 133.719C14.416 135.408 15.7738 138.865 16.6224 141.277C18.4893 146.664 21.12 152.131 23.4113 155.347C24.3447 156.633 25.5328 158.322 25.9571 159.045C33.5098 170.542 49.3788 183.889 63.296 190.481C65.6721 191.607 69.6606 193.135 72.2064 193.778C82.7292 196.672 104.539 197.717 108.612 195.627C109.715 195.064 111.327 194.743 112.091 194.903C112.94 195.145 114.722 194.743 116.165 194.019C117.607 193.295 119.729 192.733 120.917 192.733C122.105 192.733 124.396 192.009 126.093 191.125C127.791 190.24 129.657 189.517 130.336 189.517C132.203 189.517 149.77 181.075 151.042 179.547C151.721 178.823 152.655 178.261 153.249 178.261C153.758 178.261 154.946 177.457 155.88 176.572C157.407 174.884 161.311 172.231 166.657 169.175C168.015 168.371 170.985 165.959 173.276 163.789C175.567 161.537 177.859 159.769 178.368 159.769C178.877 159.769 180.489 158.884 182.017 157.759C183.459 156.714 186.26 154.623 188.297 153.176C190.248 151.729 193.982 148.915 196.528 146.905C198.989 144.895 202.893 142 205.099 140.473C207.305 138.945 210.53 136.453 212.227 135.006C214.009 133.639 216.301 132.433 217.489 132.433C220.204 132.433 225.211 134.925 234.631 140.875C238.789 143.528 244.135 146.744 246.511 147.95C248.887 149.236 251.433 150.684 252.112 151.246C252.791 151.729 254.573 152.694 255.931 153.337C257.374 153.98 259.156 155.025 260.004 155.668C264.926 159.527 288.093 170.703 292.761 171.427C294.797 171.748 297.852 172.552 299.465 173.195C301.501 173.999 305.914 174.401 313.127 174.482C323.141 174.643 324.074 174.482 328.487 172.472C336.464 168.773 341.726 162.342 345.29 151.648C346.478 148.272 345.956 134.616 345.29 129.558C345.29 124.525 342.914 117.157 342.914 112.896C342.914 110.323 342.574 107.67 342.15 106.866C340.707 104.132 339.349 98.1824 338.586 91.4288C337.567 81.62 336.04 77.2784 336.04 77.2784C336.04 77.2784 335.276 75.7508 335.276 74.4644C335.276 72.0524 327.723 56.7764 324.074 51.7916C317.625 43.1084 305.829 34.9881 294.967 31.9329C291.403 30.9681 279.098 31.2093 270.782 32.4957C266.029 33.2193 257.034 37.2393 252.706 40.5356C251.348 41.5808 249.736 42.3848 249.057 42.3848C248.378 42.3848 247.869 42.7064 247.869 43.028C247.869 43.3496 246.596 44.3144 245.154 45.1184C243.626 46.0028 240.147 48.4952 237.516 50.7464C230.642 56.6156 226.908 59.3492 221.477 62.726C218.847 64.334 215.367 66.9068 213.67 68.5148C210.7 71.3288 206.202 72.374 205.099 70.6052C204.42 69.56 189.4 60.0728 186.345 58.706C184.987 58.0628 182.611 56.7764 181.083 55.8116C179.641 54.8468 176.416 52.9172 174.04 51.6308C171.579 50.264 168.609 48.4148 167.421 47.5304C166.148 46.5656 163.772 45.1184 162.074 44.3144C160.377 43.43 156.219 41.0984 152.909 38.9276C149.6 36.8372 146.205 34.9077 145.442 34.5861C144.593 34.3449 143.235 33.5409 142.387 32.8173C140.689 31.4505 135.683 28.6365 128.045 24.7773C125.414 23.4105 123.038 21.9633 122.784 21.5613C122.105 20.5965 100.38 10.2249 99.0226 10.2249C98.4286 10.2249 95.3736 9.01889 92.2337 7.49129C89.009 5.96369 85.954 4.91849 85.3599 5.07929C84.7659 5.32049 83.0687 4.91849 81.626 4.27529C80.2683 3.55169 77.977 2.98889 76.5344 2.98889C75.1766 2.98889 73.8188 2.66728 73.5642 2.26528C72.8005 1.13969 66.8602 0.416088 54.8099 0.0944883C48.2756 -0.146711 43.2688 0.0945033 42.505 0.576903ZM65.163 11.4309C82.2201 14.0841 106.66 24.0537 128.215 37.1588C133.985 40.6964 155.116 53.1584 168.948 61.2788C188.551 72.6956 197.801 78.404 197.801 79.0472C197.801 80.2532 194.916 82.5848 193.473 82.5848C192.624 82.5848 185.326 78.6452 177.265 73.8212C125.499 43.1084 115.74 37.7217 98.5983 31.1289C77.1284 22.8477 55.1494 20.5965 39.9592 25.1793C30.8791 27.8325 23.4113 32.3348 17.471 38.606C14.9252 41.3396 12.6339 43.2692 12.2945 42.9476C11.4458 42.1436 14.7554 33.2193 17.6407 28.2345C22.4778 20.0337 31.9823 13.6821 42.8445 11.4309C49.8031 9.98368 55.8282 9.98368 65.163 11.4309ZM77.4678 35.8725C98.2588 41.1788 113.364 48.254 146.884 68.5148C148.497 69.4796 156.728 74.384 165.129 79.3688C183.714 90.3032 183.29 90.062 181.253 92.2328C180.404 93.1172 179.047 93.8408 178.198 93.8408C177.349 93.8408 170.645 90.3032 163.262 85.8812C133.901 68.5952 128.215 65.3792 116.759 60.0728C104.199 54.2036 88.1604 48.7364 78.9953 47.1284C75.9403 46.5656 69.2363 46.0028 64.1446 45.842C47.1724 45.1988 34.8675 49.46 23.9204 59.7512C18.5742 64.8164 16.1981 66.5852 16.1981 65.4596C16.1981 64.2536 20.0168 54.6056 21.4595 52.1936C27.0603 42.7064 37.0739 35.9529 48.4453 34.0233C53.6219 33.1389 71.1033 34.2645 77.4678 35.8725ZM290.809 42.7868C293.694 43.43 298.277 45.1988 301.077 46.7264C306.932 50.0228 315.758 58.5452 315.758 61.0376C315.758 62.6456 315.673 62.6456 313.467 61.1984C305.235 56.0528 298.107 54.1232 287.33 54.1232C272.564 54.1232 261.956 58.706 241.08 74.1428C234.8 78.806 228.945 82.5848 228.096 82.5848C225.89 82.5848 219.865 78.7256 220.374 77.6C220.544 77.0372 225.805 72.9368 231.83 68.5148C237.94 64.0928 243.371 60.0728 243.965 59.5904C247.275 56.696 257.798 49.7012 261.617 47.852C267.472 44.9576 270.188 43.9928 275.873 42.7868C282.153 41.42 284.699 41.42 290.809 42.7868ZM77.0435 57.2588C78.6559 57.902 81.1169 58.4648 82.4747 58.4648C83.7476 58.4648 85.0205 58.7864 85.2751 59.1884C85.5297 59.5904 86.8026 60.0728 88.0755 60.314C94.0158 61.3592 129.318 77.6 136.277 82.5044C138.144 83.7908 141.368 85.7204 143.49 86.7656C145.611 87.7304 149.939 90.2228 153.164 92.2328C156.304 94.2428 159.783 96.2528 160.802 96.8156C161.82 97.3784 163.517 98.6648 164.62 99.7904C166.572 101.72 166.572 101.881 165.214 103.971C164.366 105.097 162.499 106.624 161.056 107.348C159.698 108.152 157.068 109.921 155.37 111.288C153.588 112.735 151.806 113.941 151.382 113.941C150.958 113.941 149.091 115.388 147.309 117.157C145.442 118.926 142.217 121.177 140.095 122.142C137.974 123.026 135.513 124.473 134.579 125.277C133.137 126.483 122.869 131.307 110.564 136.533C108.612 137.337 105.217 138.061 103.096 138.061C100.974 138.061 98.5983 138.382 97.8345 138.784C97.0708 139.186 91.8094 139.669 86.2085 139.91C78.4013 140.232 75.516 140.071 73.9037 139.267C72.7156 138.624 70.7638 138.141 69.4909 138.061C67.2845 138.061 61.9382 136.131 56.9314 133.558C55.7434 132.996 52.943 131.548 50.5668 130.423C45.9843 128.091 30.6245 114.262 30.6245 112.494C30.6245 111.85 29.5213 110.403 28.1635 109.197C14.5008 97.0568 22.3081 68.8364 41.6564 60.6356C51.67 56.3744 52.7732 56.1332 63.5506 56.1332C70.9335 56.0528 74.8371 56.3744 77.0435 57.2588ZM296.664 66.1028C304.471 68.0324 311.939 72.8564 317.54 79.61C321.953 84.836 321.953 86.444 317.54 83.8712C309.139 78.806 302.35 76.9568 292.421 76.9568C279.692 76.9568 268.236 80.9768 255.591 89.8208C251.773 92.474 248.209 94.6448 247.614 94.6448C246.002 94.6448 240.232 90.7052 240.232 89.5796C240.232 87.8912 258.731 74.4644 266.878 70.2032C276.637 65.138 286.82 63.6908 296.664 66.1028ZM213.84 87.9716C217.489 90.2228 217.998 91.268 216.301 92.876C214.773 94.3232 211.803 94.082 208.493 92.1524C205.184 90.3032 204.505 87.9716 206.966 86.6852C209.172 85.3988 210.021 85.64 213.84 87.9716ZM307.866 91.268C316.437 95.4488 323.905 102.524 324.753 107.428C325.093 109.278 326.79 113.056 328.572 115.87C331.542 120.534 331.967 121.9 333.579 133.076C335.191 144.171 335.276 145.538 334.088 149.236C331.967 156.07 327.129 161.939 321.359 164.753C318.304 166.201 317.54 166.281 311.176 165.397C297.004 163.467 287.33 159.206 261.277 143.689C252.027 138.141 240.995 131.629 236.752 129.217C230.812 125.76 229.2 124.473 229.369 123.187C229.539 122.302 230.642 121.257 231.83 120.855C233.782 120.212 235.989 121.257 250.5 129.86C269 140.714 279.098 145.779 289.027 149.076C295.052 151.005 297.089 151.246 306.423 151.327C315.673 151.327 317.455 151.086 320.425 149.638C322.632 148.513 323.735 147.468 323.565 146.583C323.396 145.86 323.905 145.056 324.584 144.814C325.262 144.573 325.687 143.93 325.432 143.287C325.178 142.724 325.602 141.759 326.281 141.036C327.808 139.588 328.063 137.578 326.79 136.855C326.366 136.614 324.584 137.257 322.801 138.382C317.625 141.438 313.636 142.322 306.508 141.84C293.779 140.955 284.105 136.855 256.864 120.775C255.337 119.89 251.942 117.88 249.312 116.353C243.965 113.217 243.202 110.886 247.19 109.599C249.057 108.956 250.415 109.438 256.949 113.298C278.759 126.081 298.531 131.548 312.448 128.413C320.935 126.483 327.554 120.855 326.366 116.594C325.941 115.308 325.602 113.86 325.432 113.298C325.008 111.288 324.329 111.288 321.529 113.298C315.588 117.478 313.637 117.961 302.095 117.961C295.816 117.961 291.063 117.639 290.724 117.157C290.469 116.674 289.536 116.353 288.772 116.353C287.245 116.353 266.114 106.544 263.993 104.775C263.314 104.212 262.041 103.489 261.277 103.248C258.986 102.524 259.41 99.5492 261.786 98.6648C262.89 98.2628 264.078 97.5392 264.417 97.0568C265.181 95.9312 277.316 90.2228 280.626 89.4992C287.754 87.8912 289.536 87.65 295.137 87.8912C300.144 88.052 302.265 88.6148 307.866 91.268ZM198.65 99.0668C202.553 101.398 202.893 102.926 199.923 104.775C197.971 105.981 197.631 105.981 194.067 103.971C189.315 101.318 188.806 100.514 190.673 98.5844C192.624 96.5744 194.576 96.6548 198.65 99.0668ZM233.103 99.2276C237.346 101.8 237.771 103.569 234.716 105.097C232.849 106.062 232.17 105.901 228.775 104.212C224.532 102.042 223.938 100.273 226.824 98.3432C229.2 96.7352 228.775 96.6548 233.103 99.2276ZM183.375 110.403C185.242 111.609 186.769 112.735 186.769 113.056C186.769 114.102 185.157 115.468 176.161 121.981C171.07 125.76 163.857 131.066 160.207 133.8C141.538 147.95 126.093 156.07 109.545 160.653C102.587 162.583 87.142 163.467 79.844 162.341C68.3877 160.653 54.2159 153.9 44.5417 145.538C40.1289 141.759 34.0189 135.006 34.0189 133.96C34.0189 132.835 36.2253 133.076 37.4134 134.443C39.1106 136.372 49.9728 142.885 54.9796 144.975C63.8052 148.754 72.0367 150.362 83.6627 150.764C99.362 151.246 111.158 148.834 126.433 141.92C138.992 136.292 146.715 131.307 171.918 112.735C175.228 110.323 178.368 108.313 178.962 108.313C179.556 108.313 181.508 109.278 183.375 110.403ZM217.828 110.403C222.071 112.735 222.58 114.745 219.356 116.353C217.404 117.398 216.81 117.318 213.415 115.629C209.427 113.619 208.833 112.172 211.124 109.76C212.906 107.911 213.331 107.911 217.828 110.403ZM202.553 121.659C204.675 122.865 206.287 124.312 206.202 125.036C206.202 125.84 199.923 130.905 192.03 136.614C184.223 142.242 171.918 151.246 164.705 156.553C148.497 168.452 137.55 174.964 127.196 178.984C117.013 183.004 114.892 183.567 105.811 185.095C96.7313 186.542 91.6397 186.622 83.2384 185.175C67.0299 182.361 52.0944 174.08 40.6381 161.296C33.9341 153.819 35.3767 152.854 44.2023 158.884C57.5255 168.05 66.9451 171.587 83.3233 173.517C94.3552 174.803 106.915 173.276 120.153 169.015C124.651 167.567 139.332 160.975 144.338 158.08C150.109 154.784 176.84 135.729 193.388 123.026C195.849 121.096 198.056 119.569 198.31 119.569C198.565 119.569 200.432 120.534 202.553 121.659Z"/>
</mask>
<path d="M42.505 0.576903C41.8261 0.978902 40.0441 1.38089 38.5166 1.38089C37.0739 1.38089 35.5464 1.70249 35.2918 2.18489C35.0373 2.58689 34.0189 2.98889 33.0854 2.98889C29.4364 2.98889 21.4595 7.89328 15.6889 13.7625C6.26931 23.3301 6.86334 22.2045 1.2625 39.2492C-0.434719 44.5556 -0.434719 74.0624 1.34737 76.9568C2.02625 78.0824 2.53542 80.0924 2.62028 81.3788C2.62028 82.7456 2.95973 84.1928 3.38403 84.5948C3.80834 85.0772 4.40237 87.5696 4.65695 90.2228C4.91153 92.876 5.50556 97.3784 5.92987 100.273C6.43904 103.167 7.20279 107.991 7.62709 111.127C8.0514 114.182 8.81515 117.8 9.23945 119.167C11.1913 124.554 11.955 127.368 11.955 128.895C11.955 129.78 12.6339 131.95 13.5674 133.719C14.416 135.408 15.7738 138.865 16.6224 141.277C18.4893 146.664 21.12 152.131 23.4113 155.347C24.3447 156.633 25.5328 158.322 25.9571 159.045C33.5098 170.542 49.3788 183.889 63.296 190.481C65.6721 191.607 69.6606 193.135 72.2064 193.778C82.7292 196.672 104.539 197.717 108.612 195.627C109.715 195.064 111.327 194.743 112.091 194.903C112.94 195.145 114.722 194.743 116.165 194.019C117.607 193.295 119.729 192.733 120.917 192.733C122.105 192.733 124.396 192.009 126.093 191.125C127.791 190.24 129.657 189.517 130.336 189.517C132.203 189.517 149.77 181.075 151.042 179.547C151.721 178.823 152.655 178.261 153.249 178.261C153.758 178.261 154.946 177.457 155.88 176.572C157.407 174.884 161.311 172.231 166.657 169.175C168.015 168.371 170.985 165.959 173.276 163.789C175.567 161.537 177.859 159.769 178.368 159.769C178.877 159.769 180.489 158.884 182.017 157.759C183.459 156.714 186.26 154.623 188.297 153.176C190.248 151.729 193.982 148.915 196.528 146.905C198.989 144.895 202.893 142 205.099 140.473C207.305 138.945 210.53 136.453 212.227 135.006C214.009 133.639 216.301 132.433 217.489 132.433C220.204 132.433 225.211 134.925 234.631 140.875C238.789 143.528 244.135 146.744 246.511 147.95C248.887 149.236 251.433 150.684 252.112 151.246C252.791 151.729 254.573 152.694 255.931 153.337C257.374 153.98 259.156 155.025 260.004 155.668C264.926 159.527 288.093 170.703 292.761 171.427C294.797 171.748 297.852 172.552 299.465 173.195C301.501 173.999 305.914 174.401 313.127 174.482C323.141 174.643 324.074 174.482 328.487 172.472C336.464 168.773 341.726 162.342 345.29 151.648C346.478 148.272 345.956 134.616 345.29 129.558C345.29 124.525 342.914 117.157 342.914 112.896C342.914 110.323 342.574 107.67 342.15 106.866C340.707 104.132 339.349 98.1824 338.586 91.4288C337.567 81.62 336.04 77.2784 336.04 77.2784C336.04 77.2784 335.276 75.7508 335.276 74.4644C335.276 72.0524 327.723 56.7764 324.074 51.7916C317.625 43.1084 305.829 34.9881 294.967 31.9329C291.403 30.9681 279.098 31.2093 270.782 32.4957C266.029 33.2193 257.034 37.2393 252.706 40.5356C251.348 41.5808 249.736 42.3848 249.057 42.3848C248.378 42.3848 247.869 42.7064 247.869 43.028C247.869 43.3496 246.596 44.3144 245.154 45.1184C243.626 46.0028 240.147 48.4952 237.516 50.7464C230.642 56.6156 226.908 59.3492 221.477 62.726C218.847 64.334 215.367 66.9068 213.67 68.5148C210.7 71.3288 206.202 72.374 205.099 70.6052C204.42 69.56 189.4 60.0728 186.345 58.706C184.987 58.0628 182.611 56.7764 181.083 55.8116C179.641 54.8468 176.416 52.9172 174.04 51.6308C171.579 50.264 168.609 48.4148 167.421 47.5304C166.148 46.5656 163.772 45.1184 162.074 44.3144C160.377 43.43 156.219 41.0984 152.909 38.9276C149.6 36.8372 146.205 34.9077 145.442 34.5861C144.593 34.3449 143.235 33.5409 142.387 32.8173C140.689 31.4505 135.683 28.6365 128.045 24.7773C125.414 23.4105 123.038 21.9633 122.784 21.5613C122.105 20.5965 100.38 10.2249 99.0226 10.2249C98.4286 10.2249 95.3736 9.01889 92.2337 7.49129C89.009 5.96369 85.954 4.91849 85.3599 5.07929C84.7659 5.32049 83.0687 4.91849 81.626 4.27529C80.2683 3.55169 77.977 2.98889 76.5344 2.98889C75.1766 2.98889 73.8188 2.66728 73.5642 2.26528C72.8005 1.13969 66.8602 0.416088 54.8099 0.0944883C48.2756 -0.146711 43.2688 0.0945033 42.505 0.576903ZM65.163 11.4309C82.2201 14.0841 106.66 24.0537 128.215 37.1588C133.985 40.6964 155.116 53.1584 168.948 61.2788C188.551 72.6956 197.801 78.404 197.801 79.0472C197.801 80.2532 194.916 82.5848 193.473 82.5848C192.624 82.5848 185.326 78.6452 177.265 73.8212C125.499 43.1084 115.74 37.7217 98.5983 31.1289C77.1284 22.8477 55.1494 20.5965 39.9592 25.1793C30.8791 27.8325 23.4113 32.3348 17.471 38.606C14.9252 41.3396 12.6339 43.2692 12.2945 42.9476C11.4458 42.1436 14.7554 33.2193 17.6407 28.2345C22.4778 20.0337 31.9823 13.6821 42.8445 11.4309C49.8031 9.98368 55.8282 9.98368 65.163 11.4309ZM77.4678 35.8725C98.2588 41.1788 113.364 48.254 146.884 68.5148C148.497 69.4796 156.728 74.384 165.129 79.3688C183.714 90.3032 183.29 90.062 181.253 92.2328C180.404 93.1172 179.047 93.8408 178.198 93.8408C177.349 93.8408 170.645 90.3032 163.262 85.8812C133.901 68.5952 128.215 65.3792 116.759 60.0728C104.199 54.2036 88.1604 48.7364 78.9953 47.1284C75.9403 46.5656 69.2363 46.0028 64.1446 45.842C47.1724 45.1988 34.8675 49.46 23.9204 59.7512C18.5742 64.8164 16.1981 66.5852 16.1981 65.4596C16.1981 64.2536 20.0168 54.6056 21.4595 52.1936C27.0603 42.7064 37.0739 35.9529 48.4453 34.0233C53.6219 33.1389 71.1033 34.2645 77.4678 35.8725ZM290.809 42.7868C293.694 43.43 298.277 45.1988 301.077 46.7264C306.932 50.0228 315.758 58.5452 315.758 61.0376C315.758 62.6456 315.673 62.6456 313.467 61.1984C305.235 56.0528 298.107 54.1232 287.33 54.1232C272.564 54.1232 261.956 58.706 241.08 74.1428C234.8 78.806 228.945 82.5848 228.096 82.5848C225.89 82.5848 219.865 78.7256 220.374 77.6C220.544 77.0372 225.805 72.9368 231.83 68.5148C237.94 64.0928 243.371 60.0728 243.965 59.5904C247.275 56.696 257.798 49.7012 261.617 47.852C267.472 44.9576 270.188 43.9928 275.873 42.7868C282.153 41.42 284.699 41.42 290.809 42.7868ZM77.0435 57.2588C78.6559 57.902 81.1169 58.4648 82.4747 58.4648C83.7476 58.4648 85.0205 58.7864 85.2751 59.1884C85.5297 59.5904 86.8026 60.0728 88.0755 60.314C94.0158 61.3592 129.318 77.6 136.277 82.5044C138.144 83.7908 141.368 85.7204 143.49 86.7656C145.611 87.7304 149.939 90.2228 153.164 92.2328C156.304 94.2428 159.783 96.2528 160.802 96.8156C161.82 97.3784 163.517 98.6648 164.62 99.7904C166.572 101.72 166.572 101.881 165.214 103.971C164.366 105.097 162.499 106.624 161.056 107.348C159.698 108.152 157.068 109.921 155.37 111.288C153.588 112.735 151.806 113.941 151.382 113.941C150.958 113.941 149.091 115.388 147.309 117.157C145.442 118.926 142.217 121.177 140.095 122.142C137.974 123.026 135.513 124.473 134.579 125.277C133.137 126.483 122.869 131.307 110.564 136.533C108.612 137.337 105.217 138.061 103.096 138.061C100.974 138.061 98.5983 138.382 97.8345 138.784C97.0708 139.186 91.8094 139.669 86.2085 139.91C78.4013 140.232 75.516 140.071 73.9037 139.267C72.7156 138.624 70.7638 138.141 69.4909 138.061C67.2845 138.061 61.9382 136.131 56.9314 133.558C55.7434 132.996 52.943 131.548 50.5668 130.423C45.9843 128.091 30.6245 114.262 30.6245 112.494C30.6245 111.85 29.5213 110.403 28.1635 109.197C14.5008 97.0568 22.3081 68.8364 41.6564 60.6356C51.67 56.3744 52.7732 56.1332 63.5506 56.1332C70.9335 56.0528 74.8371 56.3744 77.0435 57.2588ZM296.664 66.1028C304.471 68.0324 311.939 72.8564 317.54 79.61C321.953 84.836 321.953 86.444 317.54 83.8712C309.139 78.806 302.35 76.9568 292.421 76.9568C279.692 76.9568 268.236 80.9768 255.591 89.8208C251.773 92.474 248.209 94.6448 247.614 94.6448C246.002 94.6448 240.232 90.7052 240.232 89.5796C240.232 87.8912 258.731 74.4644 266.878 70.2032C276.637 65.138 286.82 63.6908 296.664 66.1028ZM213.84 87.9716C217.489 90.2228 217.998 91.268 216.301 92.876C214.773 94.3232 211.803 94.082 208.493 92.1524C205.184 90.3032 204.505 87.9716 206.966 86.6852C209.172 85.3988 210.021 85.64 213.84 87.9716ZM307.866 91.268C316.437 95.4488 323.905 102.524 324.753 107.428C325.093 109.278 326.79 113.056 328.572 115.87C331.542 120.534 331.967 121.9 333.579 133.076C335.191 144.171 335.276 145.538 334.088 149.236C331.967 156.07 327.129 161.939 321.359 164.753C318.304 166.201 317.54 166.281 311.176 165.397C297.004 163.467 287.33 159.206 261.277 143.689C252.027 138.141 240.995 131.629 236.752 129.217C230.812 125.76 229.2 124.473 229.369 123.187C229.539 122.302 230.642 121.257 231.83 120.855C233.782 120.212 235.989 121.257 250.5 129.86C269 140.714 279.098 145.779 289.027 149.076C295.052 151.005 297.089 151.246 306.423 151.327C315.673 151.327 317.455 151.086 320.425 149.638C322.632 148.513 323.735 147.468 323.565 146.583C323.396 145.86 323.905 145.056 324.584 144.814C325.262 144.573 325.687 143.93 325.432 143.287C325.178 142.724 325.602 141.759 326.281 141.036C327.808 139.588 328.063 137.578 326.79 136.855C326.366 136.614 324.584 137.257 322.801 138.382C317.625 141.438 313.636 142.322 306.508 141.84C293.779 140.955 284.105 136.855 256.864 120.775C255.337 119.89 251.942 117.88 249.312 116.353C243.965 113.217 243.202 110.886 247.19 109.599C249.057 108.956 250.415 109.438 256.949 113.298C278.759 126.081 298.531 131.548 312.448 128.413C320.935 126.483 327.554 120.855 326.366 116.594C325.941 115.308 325.602 113.86 325.432 113.298C325.008 111.288 324.329 111.288 321.529 113.298C315.588 117.478 313.637 117.961 302.095 117.961C295.816 117.961 291.063 117.639 290.724 117.157C290.469 116.674 289.536 116.353 288.772 116.353C287.245 116.353 266.114 106.544 263.993 104.775C263.314 104.212 262.041 103.489 261.277 103.248C258.986 102.524 259.41 99.5492 261.786 98.6648C262.89 98.2628 264.078 97.5392 264.417 97.0568C265.181 95.9312 277.316 90.2228 280.626 89.4992C287.754 87.8912 289.536 87.65 295.137 87.8912C300.144 88.052 302.265 88.6148 307.866 91.268ZM198.65 99.0668C202.553 101.398 202.893 102.926 199.923 104.775C197.971 105.981 197.631 105.981 194.067 103.971C189.315 101.318 188.806 100.514 190.673 98.5844C192.624 96.5744 194.576 96.6548 198.65 99.0668ZM233.103 99.2276C237.346 101.8 237.771 103.569 234.716 105.097C232.849 106.062 232.17 105.901 228.775 104.212C224.532 102.042 223.938 100.273 226.824 98.3432C229.2 96.7352 228.775 96.6548 233.103 99.2276ZM183.375 110.403C185.242 111.609 186.769 112.735 186.769 113.056C186.769 114.102 185.157 115.468 176.161 121.981C171.07 125.76 163.857 131.066 160.207 133.8C141.538 147.95 126.093 156.07 109.545 160.653C102.587 162.583 87.142 163.467 79.844 162.341C68.3877 160.653 54.2159 153.9 44.5417 145.538C40.1289 141.759 34.0189 135.006 34.0189 133.96C34.0189 132.835 36.2253 133.076 37.4134 134.443C39.1106 136.372 49.9728 142.885 54.9796 144.975C63.8052 148.754 72.0367 150.362 83.6627 150.764C99.362 151.246 111.158 148.834 126.433 141.92C138.992 136.292 146.715 131.307 171.918 112.735C175.228 110.323 178.368 108.313 178.962 108.313C179.556 108.313 181.508 109.278 183.375 110.403ZM217.828 110.403C222.071 112.735 222.58 114.745 219.356 116.353C217.404 117.398 216.81 117.318 213.415 115.629C209.427 113.619 208.833 112.172 211.124 109.76C212.906 107.911 213.331 107.911 217.828 110.403ZM202.553 121.659C204.675 122.865 206.287 124.312 206.202 125.036C206.202 125.84 199.923 130.905 192.03 136.614C184.223 142.242 171.918 151.246 164.705 156.553C148.497 168.452 137.55 174.964 127.196 178.984C117.013 183.004 114.892 183.567 105.811 185.095C96.7313 186.542 91.6397 186.622 83.2384 185.175C67.0299 182.361 52.0944 174.08 40.6381 161.296C33.9341 153.819 35.3767 152.854 44.2023 158.884C57.5255 168.05 66.9451 171.587 83.3233 173.517C94.3552 174.803 106.915 173.276 120.153 169.015C124.651 167.567 139.332 160.975 144.338 158.08C150.109 154.784 176.84 135.729 193.388 123.026C195.849 121.096 198.056 119.569 198.31 119.569C198.565 119.569 200.432 120.534 202.553 121.659Z" fill="#82469C" stroke="white" stroke-width="2" mask="url(#path-1-inside-1_282_5)"/>
</svg>
